<svg xmlns="http://www.w3.org/2000/svg" xmlns:xlink="http://www.w3.org/1999/xlink" width="749.12" height="410.2"><g transform="translate(0 0)"><path d="M20 110c0-2.76 2.24-5 5-5h150c2.76 0 5 2.24 5 5v110c0 2.76-2.24 5-5 5H25c-2.76 0-5-2.24-5-5z" stroke="#000" stroke-width="2" fill="#fff"/><use xlink:href="#a" transform="matrix(1,0,0,1,20,104.99999999999994) translate(55.029999999999994 63.15)"/><path d="M160 165c0 33.14-26.86 60-60 60s-60-26.86-60-60 26.86-60 60-60 60 26.86 60 60z" stroke="#000" stroke-width="2" fill="#fff"/><use xlink:href="#b" transform="matrix(1,0,0,1,40,104.99999999999994) translate(60.004999999999995 66.9)"/><path d="M120 165c0 11.05-8.95 20-20 20s-20-8.95-20-20 8.95-20 20-20 20 8.95 20 20z" stroke="#000" stroke-width="2" fill="#fff"/><use xlink:href="#b" transform="matrix(1,0,0,1,80,144.99999999999994) translate(20.005 24.4)"/><path d="M200 90c0-2.76 2.24-5 5-5h30c2.76 0 5 2.24 5 5v30c0 2.76-2.24 5-5 5h-30c-2.76 0-5-2.24-5-5z" stroke="#000" stroke-width="2" fill="#fff"/><path d="M220 110c0-2.76 2.24-5 5-5h30c2.76 0 5 2.24 5 5v30c0 2.76-2.24 5-5 5h-30c-2.76 0-5-2.24-5-5z" stroke="#000" stroke-width="2" fill="#fff"/><path d="M240 130c0-2.76 2.24-5 5-5h30c2.76 0 5 2.24 5 5v30c0 2.76-2.24 5-5 5h-30c-2.76 0-5-2.24-5-5zM300 190c0-2.76 2.24-5 5-5h30c2.76 0 5 2.24 5 5v30c0 2.76-2.24 5-5 5h-30c-2.76 0-5-2.24-5-5z" stroke="#000" stroke-width="2" fill="#fff"/><g fill="none"><path d="M200.73 242.2c0 2.76 2.24 5 5 5h129.5c2.76 0 5-2.24 5-5v-10c0-2.76-2.24-5-5-5h-129.5c-2.76 0-5 2.24-5 5z"/><path d="M340.23 227.2c0 4.8-3.9 8.72-8.72 8.72h-52.3c-4.82 0-8.72 3.9-8.72 8.7 0-4.8-3.9-8.7-8.72-8.7h-52.3c-4.82 0-8.73-3.9-8.73-8.72" stroke="#000" stroke-width="2"/></g><path d="M90 120c0-2.76 2.24-5 5-5h10c2.76 0 5 2.24 5 5v10c0 2.76-2.24 5-5 5H95c-2.76 0-5-2.24-5-5z" stroke="#000" stroke-width="2" fill="#fff"/><path d="M101.96 125.3c0-2.76 2.24-5 5-5h10c2.76 0 5 2.24 5 5v10c0 2.77-2.24 5-5 5h-10c-2.76 0-5-2.23-5-5z" stroke="#000" stroke-width="2" fill="#fff"/><path d="M111.96 130.3c0-2.76 2.24-5 5-5h10c2.76 0 5 2.24 5 5v10c0 2.77-2.24 5-5 5h-10c-2.76 0-5-2.23-5-5z" stroke="#000" stroke-width="2" fill="#fff"/><path d="M100 115l.03-1.28.08-1.28.14-1.28.2-1.3.24-1.3.3-1.3.38-1.34.44-1.35.5-1.38.6-1.4.68-1.45.77-1.48.88-1.52 1-1.56 1.1-1.62 1.28-1.67 1.44-1.7 1.6-1.8 1.8-1.84 2.05-1.9 2.27-2 2.57-2 2.86-2.1 3.18-2.1 3.5-2.13 3.86-2.12 4.18-2.06 4.46-1.98 4.7-1.86 4.84-1.7 4.9-1.47 4.87-1.25 4.73-1 4.52-.77 4.26-.53 3.96-.33 3.64-.16h3.33l3.02.13 2.73.24 2.48.3 2.24.4 2.03.42 1.84.47 1.68.5 1.52.54 1.4.55 1.27.57 1.18.57 1.07.6 1 .6.9.6.86.62.8.62.73.64.67.64.65.66.6.66.55.68.53.7.5.7.44.7.43.75.4.76.37.8.34.8.3.84.3.87.24.9.22.96.2 1 .15 1.03.1 1.1.07 1.16L220 85" stroke="#000" stroke-width="2" fill="none"/><path d="M100 115h-1.03l.06-.24zM220 85l-8.7-12.2 8.83-2.8z"/><path d="M221 85h-2.23l-9.1-12.75 11.47-3.62zm-8.1-11.67l6.13 8.58.1-10.53z"/><path d="M63.75 260c0-2.76 2.24-5 5-5h62.5c2.76 0 5 2.24 5 5v20c0 2.76-2.24 5-5 5h-62.5c-2.76 0-5-2.24-5-5z" fill="none"/><use xlink:href="#a" transform="matrix(1,0,0,1,63.75,255.0000000000001) translate(11.524999999999999 18.6)"/><path d="M233.75 260c0-2.76 2.24-5 5-5h62.5c2.76 0 5 2.24 5 5v20c0 2.76-2.24 5-5 5h-62.5c-2.76 0-5-2.24-5-5z" fill="none"/><use xlink:href="#c" transform="matrix(1,0,0,1,233.75,255.0000000000001) translate(4 18.6)"/><path d="M324.2 160c0-2.76 2.22-5 5-5h140c2.75 0 5 2.24 5 5v20c0 2.76-2.25 5-5 5h-140c-2.78 0-5-2.24-5-5z" fill="none"/><use xlink:href="#d" transform="matrix(1,0,0,1,324.1855770968633,155) translate(15.649999999999991 18.6)"/><use xlink:href="#e" transform="matrix(1,0,0,1,324.1855770968633,155) translate(70.6 18.6)"/><path d="M502.5 160c0-2.76 2.24-5 5-5h65c2.76 0 5 2.24 5 5v20c0 2.76-2.24 5-5 5h-65c-2.76 0-5-2.24-5-5z" fill="none"/><use xlink:href="#f" transform="matrix(1,0,0,1,502.5,155) translate(2.7250000000000014 18.6)"/><use xlink:href="#g" transform="matrix(1,0,0,1,502.5,155) translate(41.375 18.6)"/><path d="M365 85c0-2.76 2.24-5 5-5h30c2.76 0 5 2.24 5 5v30c0 2.76-2.24 5-5 5h-30c-2.76 0-5-2.24-5-5z" stroke="#000" stroke-width="2" fill="#fff"/><path d="M370 90c0-2.76 2.24-5 5-5h30c2.76 0 5 2.24 5 5v30c0 2.76-2.24 5-5 5h-30c-2.76 0-5-2.24-5-5z" stroke="#000" stroke-width="2" fill="#fff"/><path d="M375 95c0-2.76 2.24-5 5-5h30c2.76 0 5 2.24 5 5v30c0 2.76-2.24 5-5 5h-30c-2.76 0-5-2.24-5-5z" stroke="#000" stroke-width="2" fill="#fff"/><path d="M285 80c-2.76 0-5 2.24-5 5v55c0 2.76 2.24 5 5 5h75c2.76 0 5-2.24 5-5V85c0-2.76-2.24-5-5-5z" fill="none"/><path d="M365 145c-2.24 0-4.06-1.82-4.06-4.06v-24.38c0-2.24-1.82-4.06-4.06-4.06 2.24 0 4.06-1.82 4.06-4.06V84.06c0-2.24 1.82-4.06 4.06-4.06" stroke="#000" stroke-width="2" fill="none"/><use xlink:href="#h" transform="matrix(1,0,0,1,280,80.00000000000003) translate(9.104999999999999 24.55625)"/><use xlink:href="#i" transform="matrix(1,0,0,1,280,80.00000000000003) translate(9.054999999999994 46.15625)"/><path d="M220 85l.03-1.64.1-1.6.17-1.55.22-1.5.3-1.5.33-1.5.4-1.44.48-1.45.53-1.42.6-1.42.67-1.43.75-1.42.82-1.42.9-1.43 1-1.44 1.1-1.44 1.23-1.47 1.34-1.5 1.47-1.5 1.62-1.52 1.8-1.54 1.96-1.57 2.2-1.58 2.4-1.6 2.67-1.63 2.95-1.63 3.28-1.62 3.62-1.6 4-1.6 4.38-1.52 4.8-1.44 5.2-1.34 5.6-1.18 5.93-1 6.2-.8 6.42-.53 6.47-.26h6.44l6.27.26 6.02.5 5.7.73 5.3.9 4.92 1.04 4.5 1.16 4.13 1.24 3.73 1.3 3.4 1.34 3.06 1.37 2.77 1.38 2.53 1.38L365 46.9l2.07 1.38 1.88 1.37 1.7 1.35 1.57 1.34 1.42 1.34 1.3 1.32 1.18 1.3 1.08 1.32 1 1.3.9 1.3.82 1.3.76 1.32.68 1.3.62 1.33.57 1.34.5 1.36.44 1.36.38 1.4.33 1.4.3 1.46.2 1.5.17 1.52.1 1.57L385 80" stroke="#000" stroke-width="2" fill="none"/><path d="M220 85H219l.04-.2zM385 80l-7.45-13.02 9.08-1.9z"/><path d="M386 80h-2.15L376 66.28l11.77-2.45zm-6.9-12.32l5.24 9.15 1.14-10.48z"/><path d="M520 55c0-2.76 2.24-5 5-5h10c2.76 0 5 2.24 5 5v45c0 2.76-2.24 5-5 5h-10c-2.76 0-5-2.24-5-5z" stroke="#000" stroke-width="2" fill="#fff"/><path d="M525 60.5c0-2.76 2.24-5 5-5h10c2.76 0 5 2.24 5 5v45c0 2.76-2.24 5-5 5h-10c-2.76 0-5-2.24-5-5z" stroke="#000" stroke-width="2" fill="#fff"/><path d="M530 65.5c0-2.76 2.24-5 5-5h10c2.76 0 5 2.24 5 5v45c0 2.76-2.24 5-5 5h-10c-2.76 0-5-2.24-5-5zM390 110c0-2.76 2.24-5 5-5h30c2.76 0 5 2.24 5 5v30c0 2.76-2.24 5-5 5h-30c-2.76 0-5-2.24-5-5zM618 45c0-2.76 2.24-5 5-5h12c2.76 0 5 2.24 5 5v185c0 2.76-2.24 5-5 5h-12c-2.76 0-5-2.24-5-5z" stroke="#000" stroke-width="2" fill="#fff"/><path d="M590 260c0-2.76 2.24-5 5-5h135c2.76 0 5 2.24 5 5v29.2c0 2.76-2.24 5-5 5H595c-2.76 0-5-2.24-5-5z" fill="none"/><use xlink:href="#j" transform="matrix(1,0,0,1,590,254.99999999999994) translate(2.174999999999997 14.4)"/><use xlink:href="#k" transform="matrix(1,0,0,1,590,254.99999999999994) translate(44.075 14.4)"/><use xlink:href="#l" transform="matrix(1,0,0,1,590,254.99999999999994) translate(13.574999999999996 36)"/><use xlink:href="#m" transform="matrix(1,0,0,1,590,254.99999999999994) translate(80.475 36)"/><path d="M540 85c0-2.76 2.24-5 5-5h10c2.76 0 5 2.24 5 5v45c0 2.76-2.24 5-5 5h-10c-2.76 0-5-2.24-5-5z" stroke="#000" stroke-width="2" fill="#fff"/><path d="M435 50.5c-2.76 0-5 2.24-5 5V130c0 2.76 2.24 5 5 5h75c2.76 0 5-2.24 5-5V55.5c0-2.76-2.24-5-5-5z" fill="none"/><path d="M515 135c-2.92 0-5.28-2.36-5.28-5.28v-31.7c0-2.9-2.37-5.27-5.28-5.27 2.9 0 5.28-2.36 5.28-5.28v-31.7c0-2.9 2.36-5.27 5.28-5.27" stroke="#000" stroke-width="2" fill="none"/><use xlink:href="#n" transform="matrix(1,0,0,1,430.00000000000006,50.5) translate(22.055 35.65)"/><use xlink:href="#m" transform="matrix(1,0,0,1,430.00000000000006,50.5) translate(12.03 57.25)"/><path d="M397.5 80l.03-1.4.1-1.4.13-1.38.2-1.4.28-1.4.33-1.4.4-1.44.47-1.45.55-1.47.6-1.5.73-1.52.82-1.56.93-1.6 1.04-1.65 1.18-1.7 1.32-1.74 1.5-1.8 1.67-1.87 1.87-1.92 2.1-1.97 2.38-2.04 2.65-2.1 2.96-2.16 3.3-2.2 3.65-2.2 4.03-2.2 4.37-2.18 4.72-2.1 5-1.98 5.22-1.82 5.36-1.6 5.37-1.4 5.3-1.12 5.1-.86 4.87-.62 4.56-.38 4.22-.18h3.87l3.52.15 3.2.27 2.92.36 2.63.45 2.4.5 2.15.56 1.96.58 1.8.62 1.62.65 1.48.66 1.37.68 1.25.7 1.15.7 1.07.7.98.7.92.74.84.73.8.74.72.74.7.76.62.77.6.78.56.8.5.8.5.85.44.85.4.88.4.9.34.94.32.97.28 1 .25 1.06.2 1.1.16 1.15.13 1.2.07 1.3L530 50" stroke="#000" stroke-width="2" fill="none"/><path d="M397.5 80h-1.03l.05-.22zM530 50l-8.3-12.5 8.93-2.5z"/><path d="M531 50h-2.2l-8.7-13.1 11.6-3.22zm-7.7-11.9l5.83 8.78.44-10.53z"/><path d="M560 107.5l3.36.14 2.94.38 2.65.58 2.46.77 2.38.97 2.37 1.2 2.47 1.56 2.8 2.13 4 3.64 11.16 10.9 2.8 2.13 2.47 1.55 2.37 1.2 2.37.98 2.45.77 2.65.58 2.94.38 3.36.14" stroke="#000" stroke-width="2" fill="none"/><path d="M560.22 106.52l-.22.98v-1.02zM618 137.5l-14.93 1.44 2-9.05z"/><path d="M618 136.34v2.16l-16.2 1.57 2.6-11.74zm-13.66 1.48l10.5-1.02-9.1-5.35z"/><path d="M362.5 200c0-2.76 2.24-5 5-5h30c2.76 0 5 2.24 5 5v30c0 2.76-2.24 5-5 5h-30c-2.76 0-5-2.24-5-5z" stroke="#000" stroke-width="2" fill="#fff"/><path d="M367.5 205c0-2.76 2.24-5 5-5h30c2.76 0 5 2.24 5 5v30c0 2.76-2.24 5-5 5h-30c-2.76 0-5-2.24-5-5z" stroke="#000" stroke-width="2" fill="#fff"/><path d="M372.5 210c0-2.76 2.24-5 5-5h30c2.76 0 5 2.24 5 5v30c0 2.76-2.24 5-5 5h-30c-2.76 0-5-2.24-5-5zM503 190c0-2.76 2.24-5 5-5h10c2.76 0 5 2.24 5 5v45c0 2.76-2.24 5-5 5h-10c-2.76 0-5-2.24-5-5z" stroke="#000" stroke-width="2" fill="#fff"/><path d="M508 195.5c0-2.76 2.24-5 5-5h10c2.76 0 5 2.24 5 5v45c0 2.76-2.24 5-5 5h-10c-2.76 0-5-2.24-5-5z" stroke="#000" stroke-width="2" fill="#fff"/><path d="M513 200.5c0-2.76 2.24-5 5-5h10c2.76 0 5 2.24 5 5v45c0 2.76-2.24 5-5 5h-10c-2.76 0-5-2.24-5-5zM387.5 225c0-2.76 2.24-5 5-5h30c2.76 0 5 2.24 5 5v30c0 2.76-2.24 5-5 5h-30c-2.76 0-5-2.24-5-5z" stroke="#000" stroke-width="2" fill="#fff"/><path d="M523 220c0-2.76 2.24-5 5-5h10c2.76 0 5 2.24 5 5v45c0 2.76-2.24 5-5 5h-10c-2.76 0-5-2.24-5-5z" stroke="#000" stroke-width="2" fill="#fff"/><path d="M543 242.5l.94-.02.92-.07.9-.1.87-.14.86-.2.85-.22.86-.27.86-.32.86-.37.88-.43.88-.48.9-.56.94-.62.97-.72 1-.83 1.05-.96 1.1-1.12 1.2-1.3 1.27-1.55 1.4-1.87 1.54-2.28 1.73-2.86 2.02-3.72 2.47-5.13 3.4-8.02 17-44.68 2.48-5.13 2.03-3.7 1.74-2.87 1.54-2.28 1.4-1.87 1.27-1.55 1.2-1.3 1.1-1.12 1.06-.96 1-.83.98-.72.93-.63.92-.57.88-.48.88-.43.86-.37.85-.32.85-.27.86-.23.87-.2.88-.14.9-.1.9-.08.95-.02" stroke="#000" stroke-width="2" fill="none"/><path d="M543.37 243.43l-.37.15v-1.08zM606.5 147.12l-3.47-8.6L618 137.5z"/><path d="M618 138.8l-11.92 9.97-4.5-11.15L618 136.5zm-13.52.63l2.43 6.04 8.1-6.76z"/><path d="M362.75 316c0-2.76 2.24-5 5-5h30c2.76 0 5 2.24 5 5v30c0 2.76-2.24 5-5 5h-30c-2.76 0-5-2.24-5-5z" stroke="#000" stroke-width="2" fill="#fff"/><path d="M367.75 321c0-2.76 2.24-5 5-5h30c2.76 0 5 2.24 5 5v30c0 2.76-2.24 5-5 5h-30c-2.76 0-5-2.24-5-5z" stroke="#000" stroke-width="2" fill="#fff"/><path d="M372.75 326c0-2.76 2.24-5 5-5h30c2.76 0 5 2.24 5 5v30c0 2.76-2.24 5-5 5h-30c-2.76 0-5-2.24-5-5zM503 312.76c0-2.76 2.24-5 5-5h10c2.76 0 5 2.24 5 5v45c0 2.76-2.24 5-5 5h-10c-2.76 0-5-2.24-5-5z" stroke="#000" stroke-width="2" fill="#fff"/><path d="M508 318.26c0-2.76 2.24-5 5-5h10c2.76 0 5 2.24 5 5v45c0 2.76-2.24 5-5 5h-10c-2.76 0-5-2.24-5-5z" stroke="#000" stroke-width="2" fill="#fff"/><path d="M513 323.26c0-2.76 2.24-5 5-5h10c2.76 0 5 2.24 5 5v45c0 2.76-2.24 5-5 5h-10c-2.76 0-5-2.24-5-5zM387.75 341c0-2.76 2.24-5 5-5h30c2.76 0 5 2.24 5 5v30c0 2.76-2.24 5-5 5h-30c-2.76 0-5-2.24-5-5z" stroke="#000" stroke-width="2" fill="#fff"/><path d="M523 342.76c0-2.76 2.24-5 5-5h10c2.76 0 5 2.24 5 5v45c0 2.76-2.24 5-5 5h-10c-2.76 0-5-2.24-5-5z" stroke="#000" stroke-width="2" fill="#fff"/><path d="M543 365.26h.4l.37-.03.38-.04.38-.07.37-.07.38-.1.4-.1.37-.12.4-.15.4-.18.4-.2.43-.2.43-.26.46-.28.46-.33.5-.37.5-.42.54-.5.57-.55.6-.64.67-.75.7-.88.77-1.06.84-1.27.94-1.55 1.04-1.9 1.17-2.36 1.35-3.05 1.57-4 1.9-5.4 2.32-7.78 3.05-12.02 4.66-22.2 20.25-112.33L596 172.1l2.34-7.77 1.9-5.43 1.56-4 1.35-3.03 1.17-2.37 1.04-1.9.93-1.53.83-1.27.77-1.05.7-.9.66-.75.6-.65.58-.56.54-.5.5-.42.5-.37.46-.32.45-.28.42-.25.42-.22.4-.2.4-.16.4-.15.4-.12.38-.1.38-.1.37-.07.38-.06.38-.04.38-.02h.4" stroke="#000" stroke-width="2" fill="none"/><path d="M543.6 366.07l-.6.43v-1.24zM609.18 149.64l-5.45-7.5L618 137.5z"/><path d="M618 139.2l-8.82 12.14-7.06-9.73 15.88-5.15zm-12.65 3.46l3.83 5.27 6.2-8.53z"/><path d="M245 165c0-2.76 2.24-5 5-5h69c2.76 0 5 2.24 5 5v15c0 2.76-2.24 5-5 5h-69c-2.76 0-5-2.24-5-5z" fill="none"/><use xlink:href="#o" transform="matrix(1,0,0,1,245,160) translate(32 16.1)"/><path d="M355.38 274c0-2.76 2.23-5 5-5h69c2.76 0 5 2.24 5 5v15c0 2.76-2.24 5-5 5h-69c-2.77 0-5-2.24-5-5z" fill="none"/><use xlink:href="#o" transform="matrix(1,0,0,1,355.375,269) translate(32 16.1)"/><path d="M483.5 275.5c0-2.76 2.24-5 5-5h69c2.76 0 5 2.24 5 5v15c0 2.76-2.24 5-5 5h-69c-2.76 0-5-2.24-5-5z" fill="none"/><g><use xlink:href="#o" transform="matrix(1,0,0,1,483.5,270.5) translate(32 16.1)"/></g><path d="M122 145c0-2.76 2.24-5 5-5h10c2.76 0 5 2.24 5 5v10c0 2.76-2.24 5-5 5h-10c-2.76 0-5-2.24-5-5z" fill="none"/><g><use xlink:href="#o" transform="matrix(1,0,0,1,122,140) translate(2.5 14.4)"/></g><path d="M129.88 165.65c0-2.77 2.24-5 5-5h10c2.77 0 5 2.23 5 5v10c0 2.76-2.23 5-5 5h-10c-2.76 0-5-2.24-5-5z" stroke="#000" stroke-width="2" fill="#fff"/><defs><path d="M33 0v-248h34V0H33" id="p"/><path d="M210-169c-67 3-38 105-44 169h-31v-121c0-29-5-50-35-48C34-165 62-65 56 0H25l-1-190h30c1 10-1 24 2 32 10-44 99-50 107 0 11-21 27-35 58-36 85-2 47 119 55 194h-31v-121c0-29-5-49-35-48" id="q"/><path d="M141-36C126-15 110 5 73 4 37 3 15-17 15-53c-1-64 63-63 125-63 3-35-9-54-41-54-24 1-41 7-42 31l-33-3c5-37 33-52 76-52 45 0 72 20 72 64v82c-1 20 7 32 28 27v20c-31 9-61-2-59-35zM48-53c0 20 12 33 32 33 41-3 63-29 60-74-43 2-92-5-92 41" id="r"/><path d="M177-190C167-65 218 103 67 71c-23-6-38-20-44-43l32-5c15 47 100 32 89-28v-30C133-14 115 1 83 1 29 1 15-40 15-95c0-56 16-97 71-98 29-1 48 16 59 35 1-10 0-23 2-32h30zM94-22c36 0 50-32 50-73 0-42-14-75-50-75-39 0-46 34-46 75s6 73 46 73" id="s"/><path d="M100-194c63 0 86 42 84 106H49c0 40 14 67 53 68 26 1 43-12 49-29l28 8c-11 28-37 45-77 45C44 4 14-33 15-96c1-61 26-98 85-98zm52 81c6-60-76-77-97-28-3 7-6 17-6 28h103" id="t"/><g id="a"><use transform="matrix(0.05,0,0,0.05,0,0)" xlink:href="#p"/><use transform="matrix(0.05,0,0,0.05,5,0)" xlink:href="#q"/><use transform="matrix(0.05,0,0,0.05,19.950000000000003,0)" xlink:href="#r"/><use transform="matrix(0.05,0,0,0.05,29.950000000000003,0)" xlink:href="#s"/><use transform="matrix(0.05,0,0,0.05,39.95,0)" xlink:href="#t"/></g><path d="M30-248c87 1 191-15 191 75 0 78-77 80-158 76V0H30v-248zm33 125c57 0 124 11 124-50 0-59-68-47-124-48v98" id="u"/><path d="M59-47c-2 24 18 29 38 22v24C64 9 27 4 27-40v-127H5v-23h24l9-43h21v43h35v23H59v120" id="v"/><path d="M96-169c-40 0-48 33-48 73s9 75 48 75c24 0 41-14 43-38l32 2c-6 37-31 61-74 61-59 0-76-41-82-99-10-93 101-131 147-64 4 7 5 14 7 22l-32 3c-4-21-16-35-41-35" id="w"/><path d="M106-169C34-169 62-67 57 0H25v-261h32l-1 103c12-21 28-36 61-36 89 0 53 116 60 194h-32v-121c2-32-8-49-39-48" id="x"/><path d="M135-143c-3-34-86-38-87 0 15 53 115 12 119 90S17 21 10-45l28-5c4 36 97 45 98 0-10-56-113-15-118-90-4-57 82-63 122-42 12 7 21 19 24 35" id="y"/><g id="c"><use transform="matrix(0.05,0,0,0.05,0,0)" xlink:href="#u"/><use transform="matrix(0.05,0,0,0.05,12,0)" xlink:href="#r"/><use transform="matrix(0.05,0,0,0.05,22,0)" xlink:href="#v"/><use transform="matrix(0.05,0,0,0.05,27,0)" xlink:href="#w"/><use transform="matrix(0.05,0,0,0.05,36,0)" xlink:href="#x"/><use transform="matrix(0.05,0,0,0.05,46,0)" xlink:href="#t"/><use transform="matrix(0.05,0,0,0.05,56,0)" xlink:href="#y"/></g><path d="M143 4C61 4 22-44 18-125c-5-107 100-154 193-111 17 8 29 25 37 43l-32 9c-13-25-37-40-76-40-61 0-88 39-88 99 0 61 29 100 91 101 35 0 62-11 79-27v-45h-74v-28h105v86C228-13 192 4 143 4" id="z"/><path d="M115-194c53 0 69 39 70 98 0 66-23 100-70 100C84 3 66-7 56-30L54 0H23l1-261h32v101c10-23 28-34 59-34zm-8 174c40 0 45-34 45-75 0-40-5-75-45-74-42 0-51 32-51 76 0 43 10 73 51 73" id="A"/><path d="M100-194c62-1 85 37 85 99 1 63-27 99-86 99S16-35 15-95c0-66 28-99 85-99zM99-20c44 1 53-31 53-75 0-43-8-75-51-75s-53 32-53 75 10 74 51 75" id="B"/><path d="M114-163C36-179 61-72 57 0H25l-1-190h30c1 12-1 29 2 39 6-27 23-49 58-41v29" id="C"/><g id="d"><use transform="matrix(0.05,0,0,0.05,0,0)" xlink:href="#z"/><use transform="matrix(0.05,0,0,0.05,14,0)" xlink:href="#r"/><use transform="matrix(0.05,0,0,0.05,24,0)" xlink:href="#A"/><use transform="matrix(0.05,0,0,0.05,34,0)" xlink:href="#B"/><use transform="matrix(0.05,0,0,0.05,44,0)" xlink:href="#C"/></g><path d="M63-220v92h138v28H63V0H30v-248h175v28H63" id="D"/><path d="M24-231v-30h32v30H24zM24 0v-190h32V0H24" id="E"/><path d="M24 0v-261h32V0H24" id="F"/><path d="M117-194c89-4 53 116 60 194h-32v-121c0-31-8-49-39-48C34-167 62-67 57 0H25l-1-190h30c1 10-1 24 2 32 11-22 29-35 61-36" id="G"/><g id="e"><use transform="matrix(0.05,0,0,0.05,0,0)" xlink:href="#D"/><use transform="matrix(0.05,0,0,0.05,10.950000000000001,0)" xlink:href="#E"/><use transform="matrix(0.05,0,0,0.05,14.9,0)" xlink:href="#F"/><use transform="matrix(0.05,0,0,0.05,18.85,0)" xlink:href="#v"/><use transform="matrix(0.05,0,0,0.05,23.85,0)" xlink:href="#t"/><use transform="matrix(0.05,0,0,0.05,33.85,0)" xlink:href="#C"/><use transform="matrix(0.05,0,0,0.05,39.800000000000004,0)" xlink:href="#E"/><use transform="matrix(0.05,0,0,0.05,43.75000000000001,0)" xlink:href="#G"/><use transform="matrix(0.05,0,0,0.05,53.75,0)" xlink:href="#s"/></g><path d="M30 0v-248h33v221h125V0H30" id="H"/><path d="M160-131c35 5 61 23 61 61C221 17 115-2 30 0v-248c76 3 177-17 177 60 0 33-19 50-47 57zm-97-11c50-1 110 9 110-42 0-47-63-36-110-37v79zm0 115c55-2 124 14 124-45 0-56-70-42-124-44v89" id="I"/><g id="f"><use transform="matrix(0.05,0,0,0.05,0,0)" xlink:href="#H"/><use transform="matrix(0.05,0,0,0.05,10,0)" xlink:href="#I"/><use transform="matrix(0.05,0,0,0.05,22,0)" xlink:href="#u"/></g><path d="M197 0v-115H63V0H30v-248h33v105h134v-105h34V0h-34" id="J"/><g id="g"><use transform="matrix(0.05,0,0,0.05,0,0)" xlink:href="#J"/><use transform="matrix(0.05,0,0,0.05,12.950000000000001,0)" xlink:href="#E"/><use transform="matrix(0.05,0,0,0.05,16.900000000000002,0)" xlink:href="#y"/><use transform="matrix(0.05,0,0,0.05,25.900000000000002,0)" xlink:href="#v"/></g><path d="M85-194c31 0 48 13 60 33l-1-100h32l1 261h-30c-2-10 0-23-3-31C134-8 116 4 85 4 32 4 16-35 15-94c0-66 23-100 70-100zm9 24c-40 0-46 34-46 75 0 40 6 74 45 74 42 0 51-32 51-76 0-42-9-74-50-73" id="K"/><g id="h"><use transform="matrix(0.05,0,0,0.05,0,0)" xlink:href="#D"/><use transform="matrix(0.05,0,0,0.05,10.950000000000001,0)" xlink:href="#E"/><use transform="matrix(0.05,0,0,0.05,14.9,0)" xlink:href="#F"/><use transform="matrix(0.05,0,0,0.05,18.85,0)" xlink:href="#v"/><use transform="matrix(0.05,0,0,0.05,23.85,0)" xlink:href="#t"/><use transform="matrix(0.05,0,0,0.05,33.85,0)" xlink:href="#C"/><use transform="matrix(0.05,0,0,0.05,39.800000000000004,0)" xlink:href="#t"/><use transform="matrix(0.05,0,0,0.05,49.800000000000004,0)" xlink:href="#K"/></g><path d="M233-177c-1 41-23 64-60 70L243 0h-38l-65-103H63V0H30v-248c88 3 205-21 203 71zM63-129c60-2 137 13 137-47 0-61-80-42-137-45v92" id="L"/><path d="M84 4C-5 8 30-112 23-190h32v120c0 31 7 50 39 49 72-2 45-101 50-169h31l1 190h-30c-1-10 1-25-2-33-11 22-28 36-60 37" id="M"/><g id="i"><use transform="matrix(0.05,0,0,0.05,0,0)" xlink:href="#L"/><use transform="matrix(0.05,0,0,0.05,12.950000000000001,0)" xlink:href="#t"/><use transform="matrix(0.05,0,0,0.05,22.950000000000003,0)" xlink:href="#y"/><use transform="matrix(0.05,0,0,0.05,31.950000000000003,0)" xlink:href="#M"/><use transform="matrix(0.05,0,0,0.05,41.95,0)" xlink:href="#F"/><use transform="matrix(0.05,0,0,0.05,45.900000000000006,0)" xlink:href="#v"/><use transform="matrix(0.05,0,0,0.05,50.900000000000006,0)" xlink:href="#y"/></g><g id="j"><use transform="matrix(0.05,0,0,0.05,0,0)" xlink:href="#J"/><use transform="matrix(0.05,0,0,0.05,12.950000000000001,0)" xlink:href="#E"/><use transform="matrix(0.05,0,0,0.05,16.900000000000002,0)" xlink:href="#s"/><use transform="matrix(0.05,0,0,0.05,26.900000000000002,0)" xlink:href="#x"/></g><path d="M30-248c118-7 216 8 213 122C240-48 200 0 122 0H30v-248zM63-27c89 8 146-16 146-99s-60-101-146-95v194" id="N"/><g id="k"><use transform="matrix(0.05,0,0,0.05,0,0)" xlink:href="#N"/><use transform="matrix(0.05,0,0,0.05,12.950000000000001,0)" xlink:href="#E"/><use transform="matrix(0.05,0,0,0.05,16.900000000000002,0)" xlink:href="#q"/><use transform="matrix(0.05,0,0,0.05,31.85,0)" xlink:href="#t"/><use transform="matrix(0.05,0,0,0.05,41.85,0)" xlink:href="#G"/><use transform="matrix(0.05,0,0,0.05,51.85,0)" xlink:href="#y"/><use transform="matrix(0.05,0,0,0.05,60.85,0)" xlink:href="#E"/><use transform="matrix(0.05,0,0,0.05,64.8,0)" xlink:href="#B"/><use transform="matrix(0.05,0,0,0.05,74.8,0)" xlink:href="#G"/><use transform="matrix(0.05,0,0,0.05,84.8,0)" xlink:href="#r"/><use transform="matrix(0.05,0,0,0.05,94.8,0)" xlink:href="#F"/></g><g id="l"><use transform="matrix(0.05,0,0,0.05,0,0)" xlink:href="#D"/><use transform="matrix(0.05,0,0,0.05,10.950000000000001,0)" xlink:href="#t"/><use transform="matrix(0.05,0,0,0.05,20.950000000000003,0)" xlink:href="#r"/><use transform="matrix(0.05,0,0,0.05,30.950000000000003,0)" xlink:href="#v"/><use transform="matrix(0.05,0,0,0.05,35.95,0)" xlink:href="#M"/><use transform="matrix(0.05,0,0,0.05,45.95,0)" xlink:href="#C"/><use transform="matrix(0.05,0,0,0.05,51.900000000000006,0)" xlink:href="#t"/></g><path d="M137 0h-34L2-248h35l83 218 83-218h36" id="O"/><g id="m"><use transform="matrix(0.05,0,0,0.05,0,0)" xlink:href="#O"/><use transform="matrix(0.05,0,0,0.05,11,0)" xlink:href="#t"/><use transform="matrix(0.05,0,0,0.05,21,0)" xlink:href="#w"/><use transform="matrix(0.05,0,0,0.05,30,0)" xlink:href="#v"/><use transform="matrix(0.05,0,0,0.05,35,0)" xlink:href="#B"/><use transform="matrix(0.05,0,0,0.05,45,0)" xlink:href="#C"/></g><g id="n"><use transform="matrix(0.05,0,0,0.05,0,0)" xlink:href="#J"/><use transform="matrix(0.05,0,0,0.05,12.950000000000001,0)" xlink:href="#E"/><use transform="matrix(0.05,0,0,0.05,16.900000000000002,0)" xlink:href="#y"/><use transform="matrix(0.05,0,0,0.05,25.900000000000002,0)" xlink:href="#v"/></g><path d="M33 0v-38h34V0H33" id="P"/><g id="o"><use transform="matrix(0.05,0,0,0.05,0,0)" xlink:href="#P"/><use transform="matrix(0.05,0,0,0.05,5,0)" xlink:href="#P"/><use transform="matrix(0.05,0,0,0.05,10,0)" xlink:href="#P"/></g></defs></g></svg>