<svg xmlns="http://www.w3.org/2000/svg" xmlns:xlink="http://www.w3.org/1999/xlink" width="880.67" height="819.67"><g transform="translate(0 0)"><g opacity=".5"><path d="M610 508.67c0 165.68-134.3 300-300 300s-300-134.32-300-300c0-165.7 134.3-300 300-300s300 134.3 300 300z" fill="#ffdf71"/><use xlink:href="#a" transform="matrix(1,0,0,1,10,208.66666666666663) translate(300.005 305.025)"/></g><g opacity=".5"><path d="M870 508.67c0 165.68-134.3 300-300 300s-300-134.32-300-300c0-165.7 134.3-300 300-300s300 134.3 300 300z" fill="#5abaa7"/><use xlink:href="#a" transform="matrix(1,0,0,1,270,208.66666666666663) translate(300.005 305.025)"/></g><g opacity=".5"><path d="M730 308.67c0 165.68-134.3 300-300 300s-300-134.32-300-300c0-165.7 134.3-300 300-300s300 134.3 300 300z" fill="#ff8f80"/><use xlink:href="#a" transform="matrix(1,0,0,1,130,8.666666666666629) translate(300.005 305.025)"/></g><path d="M320 377.67c0-2.76 2.24-5 5-5h230c2.76 0 5 2.24 5 5v166c0 2.76-2.24 5-5 5H325c-2.76 0-5-2.24-5-5z" fill="none"/><use xlink:href="#b" transform="matrix(1,0,0,1,320,372.6666666666666) translate(-8.379629629629619 34.66666666666666)"/><use xlink:href="#c" transform="matrix(1,0,0,1,320,372.6666666666666) translate(67.2685185185185 74.66666666666666)"/><use xlink:href="#d" transform="matrix(1,0,0,1,320,372.6666666666666) translate(42.31481481481481 114.66666666666667)"/><use xlink:href="#e" transform="matrix(1,0,0,1,320,372.6666666666666) translate(70.13888888888889 154.66666666666669)"/><path d="M370 633.67c0-2.76 2.24-5 5-5h130c2.76 0 5 2.24 5 5v78c0 2.76-2.24 5-5 5H375c-2.76 0-5-2.24-5-5z" fill="none"/><use xlink:href="#f" transform="matrix(1,0,0,1,370,628.6666666666666) translate(13.611111111111107 30.666666666666657)"/><use xlink:href="#g" transform="matrix(1,0,0,1,370,628.6666666666666) translate(18.24074074074074 70.66666666666666)"/><path d="M570 291.67c0-2.76 2.24-5 5-5h130c2.76 0 5 2.24 5 5v34c0 2.76-2.24 5-5 5H575c-2.76 0-5-2.24-5-5z" fill="none"/><use xlink:href="#h" transform="matrix(1,0,0,1,570,286.66666666666663) translate(7.222222222222221 28.666666666666668)"/><path d="M170 291.67c0-2.76 2.24-5 5-5h130c2.76 0 5 2.24 5 5v34c0 2.76-2.24 5-5 5H175c-2.76 0-5-2.24-5-5z" fill="none"/><use xlink:href="#i" transform="matrix(1,0,0,1,169.99999999999997,286.66666666666663) translate(-17.824074074074062 28.666666666666668)"/><path d="M70 569.67c0-2.76 2.24-5 5-5h130c2.76 0 5 2.24 5 5v34c0 2.76-2.24 5-5 5H75c-2.76 0-5-2.24-5-5z" fill="none"/><use xlink:href="#j" transform="matrix(1,0,0,1,70,564.6666666666666) translate(17.268518518518512 28.666666666666668)"/><path d="M670 553.67c0-2.76 2.24-5 5-5h130c2.76 0 5 2.24 5 5v78c0 2.76-2.24 5-5 5H675c-2.76 0-5-2.24-5-5z" fill="none"/><g><use xlink:href="#k" transform="matrix(1,0,0,1,670,548.6666666666666) translate(0.7407407407407334 30.666666666666657)"/><use xlink:href="#l" transform="matrix(1,0,0,1,670,548.6666666666666) translate(14.49074074074074 70.66666666666666)"/></g><path d="M360 73.67c0-2.76 2.24-5 5-5h130c2.76 0 5 2.24 5 5v34c0 2.76-2.24 5-5 5H365c-2.76 0-5-2.24-5-5z" fill="none"/><g><use xlink:href="#m" transform="matrix(1,0,0,1,360,68.66666666666663) translate(16.388888888888886 28.666666666666668)"/></g><defs><path d="M197 0v-115H63V0H30v-248h33v105h134v-105h34V0h-34" id="n"/><path d="M84 4C-5 8 30-112 23-190h32v120c0 31 7 50 39 49 72-2 45-101 50-169h31l1 190h-30c-1-10 1-25-2-33-11 22-28 36-60 37" id="o"/><path d="M210-169c-67 3-38 105-44 169h-31v-121c0-29-5-50-35-48C34-165 62-65 56 0H25l-1-190h30c1 10-1 24 2 32 10-44 99-50 107 0 11-21 27-35 58-36 85-2 47 119 55 194h-31v-121c0-29-5-49-35-48" id="p"/><path d="M141-36C126-15 110 5 73 4 37 3 15-17 15-53c-1-64 63-63 125-63 3-35-9-54-41-54-24 1-41 7-42 31l-33-3c5-37 33-52 76-52 45 0 72 20 72 64v82c-1 20 7 32 28 27v20c-31 9-61-2-59-35zM48-53c0 20 12 33 32 33 41-3 63-29 60-74-43 2-92-5-92 41" id="q"/><path d="M117-194c89-4 53 116 60 194h-32v-121c0-31-8-49-39-48C34-167 62-67 57 0H25l-1-190h30c1 10-1 24 2 32 11-22 29-35 61-36" id="r"/><path d="M16-82v-28h88v28H16" id="s"/><path d="M160-131c35 5 61 23 61 61C221 17 115-2 30 0v-248c76 3 177-17 177 60 0 33-19 50-47 57zm-97-11c50-1 110 9 110-42 0-47-63-36-110-37v79zm0 115c55-2 124 14 124-45 0-56-70-42-124-44v89" id="t"/><path d="M24-231v-30h32v30H24zM24 0v-190h32V0H24" id="u"/><path d="M100-194c62-1 85 37 85 99 1 63-27 99-86 99S16-35 15-95c0-66 28-99 85-99zM99-20c44 1 53-31 53-75 0-43-8-75-51-75s-53 32-53 75 10 74 51 75" id="v"/><path d="M100-194c63 0 86 42 84 106H49c0 40 14 67 53 68 26 1 43-12 49-29l28 8c-11 28-37 45-77 45C44 4 14-33 15-96c1-61 26-98 85-98zm52 81c6-60-76-77-97-28-3 7-6 17-6 28h103" id="w"/><path d="M59-47c-2 24 18 29 38 22v24C64 9 27 4 27-40v-127H5v-23h24l9-43h21v43h35v23H59v120" id="x"/><path d="M114-163C36-179 61-72 57 0H25l-1-190h30c1 12-1 29 2 39 6-27 23-49 58-41v29" id="y"/><path d="M96-169c-40 0-48 33-48 73s9 75 48 75c24 0 41-14 43-38l32 2c-6 37-31 61-74 61-59 0-76-41-82-99-10-93 101-131 147-64 4 7 5 14 7 22l-32 3c-4-21-16-35-41-35" id="z"/><g id="b"><use transform="matrix(0.0925925925925926,0,0,0.0925925925925926,0,0)" xlink:href="#n"/><use transform="matrix(0.0925925925925926,0,0,0.0925925925925926,23.981481481481485,0)" xlink:href="#o"/><use transform="matrix(0.0925925925925926,0,0,0.0925925925925926,42.5,0)" xlink:href="#p"/><use transform="matrix(0.0925925925925926,0,0,0.0925925925925926,70.18518518518519,0)" xlink:href="#q"/><use transform="matrix(0.0925925925925926,0,0,0.0925925925925926,88.70370370370371,0)" xlink:href="#r"/><use transform="matrix(0.0925925925925926,0,0,0.0925925925925926,107.22222222222223,0)" xlink:href="#s"/><use transform="matrix(0.0925925925925926,0,0,0.0925925925925926,118.24074074074075,0)" xlink:href="#t"/><use transform="matrix(0.0925925925925926,0,0,0.0925925925925926,140.46296296296296,0)" xlink:href="#u"/><use transform="matrix(0.0925925925925926,0,0,0.0925925925925926,147.77777777777777,0)" xlink:href="#v"/><use transform="matrix(0.0925925925925926,0,0,0.0925925925925926,166.2962962962963,0)" xlink:href="#p"/><use transform="matrix(0.0925925925925926,0,0,0.0925925925925926,193.9814814814815,0)" xlink:href="#w"/><use transform="matrix(0.0925925925925926,0,0,0.0925925925925926,212.50000000000003,0)" xlink:href="#x"/><use transform="matrix(0.0925925925925926,0,0,0.0925925925925926,221.75925925925927,0)" xlink:href="#y"/><use transform="matrix(0.0925925925925926,0,0,0.0925925925925926,232.77777777777777,0)" xlink:href="#u"/><use transform="matrix(0.0925925925925926,0,0,0.0925925925925926,240.09259259259258,0)" xlink:href="#z"/></g><path d="M185-189c-5-48-123-54-124 2 14 75 158 14 163 119 3 78-121 87-175 55-17-10-28-26-33-46l33-7c5 56 141 63 141-1 0-78-155-14-162-118-5-82 145-84 179-34 5 7 8 16 11 25" id="A"/><path d="M135-143c-3-34-86-38-87 0 15 53 115 12 119 90S17 21 10-45l28-5c4 36 97 45 98 0-10-56-113-15-118-90-4-57 82-63 122-42 12 7 21 19 24 35" id="B"/><g id="c"><use transform="matrix(0.0925925925925926,0,0,0.0925925925925926,0,0)" xlink:href="#A"/><use transform="matrix(0.0925925925925926,0,0,0.0925925925925926,22.222222222222225,0)" xlink:href="#w"/><use transform="matrix(0.0925925925925926,0,0,0.0925925925925926,40.74074074074075,0)" xlink:href="#r"/><use transform="matrix(0.0925925925925926,0,0,0.0925925925925926,59.25925925925927,0)" xlink:href="#B"/><use transform="matrix(0.0925925925925926,0,0,0.0925925925925926,75.92592592592594,0)" xlink:href="#v"/><use transform="matrix(0.0925925925925926,0,0,0.0925925925925926,94.44444444444446,0)" xlink:href="#y"/></g><path d="M33 0v-248h34V0H33" id="C"/><g id="d"><use transform="matrix(0.0925925925925926,0,0,0.0925925925925926,0,0)" xlink:href="#C"/><use transform="matrix(0.0925925925925926,0,0,0.0925925925925926,9.25925925925926,0)" xlink:href="#r"/><use transform="matrix(0.0925925925925926,0,0,0.0925925925925926,27.777777777777782,0)" xlink:href="#x"/><use transform="matrix(0.0925925925925926,0,0,0.0925925925925926,37.03703703703704,0)" xlink:href="#w"/><use transform="matrix(0.0925925925925926,0,0,0.0925925925925926,55.555555555555564,0)" xlink:href="#y"/><use transform="matrix(0.0925925925925926,0,0,0.0925925925925926,66.57407407407408,0)" xlink:href="#q"/><use transform="matrix(0.0925925925925926,0,0,0.0925925925925926,85.0925925925926,0)" xlink:href="#z"/><use transform="matrix(0.0925925925925926,0,0,0.0925925925925926,101.75925925925927,0)" xlink:href="#x"/><use transform="matrix(0.0925925925925926,0,0,0.0925925925925926,111.01851851851853,0)" xlink:href="#u"/><use transform="matrix(0.0925925925925926,0,0,0.0925925925925926,118.33333333333334,0)" xlink:href="#v"/><use transform="matrix(0.0925925925925926,0,0,0.0925925925925926,136.85185185185185,0)" xlink:href="#r"/></g><path d="M87 75C49 33 22-17 22-94c0-76 28-126 65-167h31c-38 41-64 92-64 168S80 34 118 75H87" id="D"/><path d="M33-261c38 41 65 92 65 168S71 34 33 75H2C39 34 66-17 66-93S39-220 2-261h31" id="E"/><g id="e"><use transform="matrix(0.0925925925925926,0,0,0.0925925925925926,0,0)" xlink:href="#D"/><use transform="matrix(0.0925925925925926,0,0,0.0925925925925926,11.018518518518519,0)" xlink:href="#n"/><use transform="matrix(0.0925925925925926,0,0,0.0925925925925926,35,0)" xlink:href="#t"/><use transform="matrix(0.0925925925925926,0,0,0.0925925925925926,57.22222222222223,0)" xlink:href="#A"/><use transform="matrix(0.0925925925925926,0,0,0.0925925925925926,79.44444444444446,0)" xlink:href="#C"/><use transform="matrix(0.0925925925925926,0,0,0.0925925925925926,88.70370370370372,0)" xlink:href="#E"/></g><path d="M115-194c55 1 70 41 70 98S169 2 115 4C84 4 66-9 55-30l1 105H24l-1-265h31l2 30c10-21 28-34 59-34zm-8 174c40 0 45-34 45-75s-6-73-45-74c-42 0-51 32-51 76 0 43 10 73 51 73" id="F"/><path d="M24 0v-261h32V0H24" id="G"/><g id="f"><use transform="matrix(0.0925925925925926,0,0,0.0925925925925926,0,0)" xlink:href="#A"/><use transform="matrix(0.0925925925925926,0,0,0.0925925925925926,22.222222222222225,0)" xlink:href="#q"/><use transform="matrix(0.0925925925925926,0,0,0.0925925925925926,40.74074074074075,0)" xlink:href="#p"/><use transform="matrix(0.0925925925925926,0,0,0.0925925925925926,68.42592592592594,0)" xlink:href="#F"/><use transform="matrix(0.0925925925925926,0,0,0.0925925925925926,86.94444444444446,0)" xlink:href="#G"/><use transform="matrix(0.0925925925925926,0,0,0.0925925925925926,94.25925925925927,0)" xlink:href="#w"/></g><path d="M140-251c81 0 123 46 123 126C263-53 228-8 163 1c7 30 30 48 69 40v23c-55 16-95-15-103-61C56-3 17-48 17-125c0-80 42-126 123-126zm0 227c63 0 89-41 89-101s-29-99-89-99c-61 0-89 39-89 99S79-25 140-24" id="H"/><path d="M179-190L93 31C79 59 56 82 12 73V49c39 6 53-20 64-50L1-190h34L92-34l54-156h33" id="I"/><g id="g"><use transform="matrix(0.0925925925925926,0,0,0.0925925925925926,0,0)" xlink:href="#H"/><use transform="matrix(0.0925925925925926,0,0,0.0925925925925926,25.925925925925927,0)" xlink:href="#o"/><use transform="matrix(0.0925925925925926,0,0,0.0925925925925926,44.44444444444444,0)" xlink:href="#q"/><use transform="matrix(0.0925925925925926,0,0,0.0925925925925926,62.96296296296296,0)" xlink:href="#G"/><use transform="matrix(0.0925925925925926,0,0,0.0925925925925926,70.27777777777777,0)" xlink:href="#u"/><use transform="matrix(0.0925925925925926,0,0,0.0925925925925926,77.59259259259258,0)" xlink:href="#x"/><use transform="matrix(0.0925925925925926,0,0,0.0925925925925926,86.85185185185185,0)" xlink:href="#I"/></g><path d="M232-93c-1 65-40 97-104 97C67 4 28-28 28-90v-158h33c8 89-33 224 67 224 102 0 64-133 71-224h33v155" id="J"/><path d="M115-194c53 0 69 39 70 98 0 66-23 100-70 100C84 3 66-7 56-30L54 0H23l1-261h32v101c10-23 28-34 59-34zm-8 174c40 0 45-34 45-75 0-40-5-75-45-74-42 0-51 32-51 76 0 43 10 73 51 73" id="K"/><g id="h"><use transform="matrix(0.0925925925925926,0,0,0.0925925925925926,0,0)" xlink:href="#J"/><use transform="matrix(0.0925925925925926,0,0,0.0925925925925926,23.981481481481485,0)" xlink:href="#B"/><use transform="matrix(0.0925925925925926,0,0,0.0925925925925926,40.64814814814815,0)" xlink:href="#q"/><use transform="matrix(0.0925925925925926,0,0,0.0925925925925926,59.16666666666667,0)" xlink:href="#K"/><use transform="matrix(0.0925925925925926,0,0,0.0925925925925926,77.68518518518519,0)" xlink:href="#u"/><use transform="matrix(0.0925925925925926,0,0,0.0925925925925926,85,0)" xlink:href="#G"/><use transform="matrix(0.0925925925925926,0,0,0.0925925925925926,92.31481481481481,0)" xlink:href="#u"/><use transform="matrix(0.0925925925925926,0,0,0.0925925925925926,99.62962962962962,0)" xlink:href="#x"/><use transform="matrix(0.0925925925925926,0,0,0.0925925925925926,108.88888888888887,0)" xlink:href="#I"/></g><path d="M30 0v-248h187v28H63v79h144v27H63v87h162V0H30" id="L"/><path d="M177-190C167-65 218 103 67 71c-23-6-38-20-44-43l32-5c15 47 100 32 89-28v-30C133-14 115 1 83 1 29 1 15-40 15-95c0-56 16-97 71-98 29-1 48 16 59 35 1-10 0-23 2-32h30zM94-22c36 0 50-32 50-73 0-42-14-75-50-75-39 0-46 34-46 75s6 73 46 73" id="M"/><g id="i"><use transform="matrix(0.0925925925925926,0,0,0.0925925925925926,0,0)" xlink:href="#L"/><use transform="matrix(0.0925925925925926,0,0,0.0925925925925926,22.222222222222225,0)" xlink:href="#y"/><use transform="matrix(0.0925925925925926,0,0,0.0925925925925926,33.24074074074075,0)" xlink:href="#M"/><use transform="matrix(0.0925925925925926,0,0,0.0925925925925926,51.75925925925927,0)" xlink:href="#v"/><use transform="matrix(0.0925925925925926,0,0,0.0925925925925926,70.27777777777779,0)" xlink:href="#r"/><use transform="matrix(0.0925925925925926,0,0,0.0925925925925926,88.7962962962963,0)" xlink:href="#v"/><use transform="matrix(0.0925925925925926,0,0,0.0925925925925926,107.31481481481482,0)" xlink:href="#p"/><use transform="matrix(0.0925925925925926,0,0,0.0925925925925926,135,0)" xlink:href="#u"/><use transform="matrix(0.0925925925925926,0,0,0.0925925925925926,142.3148148148148,0)" xlink:href="#z"/><use transform="matrix(0.0925925925925926,0,0,0.0925925925925926,158.98148148148147,0)" xlink:href="#B"/></g><g id="j"><use transform="matrix(0.0925925925925926,0,0,0.0925925925925926,0,0)" xlink:href="#A"/><use transform="matrix(0.0925925925925926,0,0,0.0925925925925926,22.222222222222225,0)" xlink:href="#w"/><use transform="matrix(0.0925925925925926,0,0,0.0925925925925926,40.74074074074075,0)" xlink:href="#r"/><use transform="matrix(0.0925925925925926,0,0,0.0925925925925926,59.25925925925927,0)" xlink:href="#B"/><use transform="matrix(0.0925925925925926,0,0,0.0925925925925926,75.92592592592594,0)" xlink:href="#v"/><use transform="matrix(0.0925925925925926,0,0,0.0925925925925926,94.44444444444446,0)" xlink:href="#y"/></g><g id="k"><use transform="matrix(0.0925925925925926,0,0,0.0925925925925926,0,0)" xlink:href="#t"/><use transform="matrix(0.0925925925925926,0,0,0.0925925925925926,22.222222222222225,0)" xlink:href="#u"/><use transform="matrix(0.0925925925925926,0,0,0.0925925925925926,29.537037037037038,0)" xlink:href="#v"/><use transform="matrix(0.0925925925925926,0,0,0.0925925925925926,48.05555555555556,0)" xlink:href="#p"/><use transform="matrix(0.0925925925925926,0,0,0.0925925925925926,75.74074074074075,0)" xlink:href="#w"/><use transform="matrix(0.0925925925925926,0,0,0.0925925925925926,94.25925925925927,0)" xlink:href="#x"/><use transform="matrix(0.0925925925925926,0,0,0.0925925925925926,103.51851851851853,0)" xlink:href="#y"/><use transform="matrix(0.0925925925925926,0,0,0.0925925925925926,114.53703703703705,0)" xlink:href="#u"/><use transform="matrix(0.0925925925925926,0,0,0.0925925925925926,121.85185185185186,0)" xlink:href="#z"/></g><g id="l"><use transform="matrix(0.0925925925925926,0,0,0.0925925925925926,0,0)" xlink:href="#A"/><use transform="matrix(0.0925925925925926,0,0,0.0925925925925926,22.222222222222225,0)" xlink:href="#I"/><use transform="matrix(0.0925925925925926,0,0,0.0925925925925926,38.88888888888889,0)" xlink:href="#B"/><use transform="matrix(0.0925925925925926,0,0,0.0925925925925926,55.555555555555564,0)" xlink:href="#x"/><use transform="matrix(0.0925925925925926,0,0,0.0925925925925926,64.81481481481481,0)" xlink:href="#w"/><use transform="matrix(0.0925925925925926,0,0,0.0925925925925926,83.33333333333333,0)" xlink:href="#p"/></g><g id="m"><use transform="matrix(0.0925925925925926,0,0,0.0925925925925926,0,0)" xlink:href="#n"/><use transform="matrix(0.0925925925925926,0,0,0.0925925925925926,23.981481481481485,0)" xlink:href="#o"/><use transform="matrix(0.0925925925925926,0,0,0.0925925925925926,42.5,0)" xlink:href="#p"/><use transform="matrix(0.0925925925925926,0,0,0.0925925925925926,70.18518518518519,0)" xlink:href="#q"/><use transform="matrix(0.0925925925925926,0,0,0.0925925925925926,88.70370370370371,0)" xlink:href="#r"/></g></defs></g></svg>