<svg xmlns="http://www.w3.org/2000/svg" xmlns:xlink="http://www.w3.org/1999/xlink" width="956" height="393.33"><g transform="translate(0 0)"><path d="M14.67 217c0-2.76 2.24-5 5-5H935c2.76 0 5 2.24 5 5v154c0 2.76-2.24 5-5 5H19.67c-2.76 0-5-2.24-5-5z" stroke="#000" stroke-width="2" fill="#fff"/><use xlink:href="#a" transform="matrix(1,0,0,1,14.666666666666742,212) translate(342.705 151.6268032)"/><use xlink:href="#b" transform="matrix(1,0,0,1,14.666666666666742,212) translate(427.555 151.6268032)"/><use xlink:href="#c" transform="matrix(1,0,0,1,14.666666666666742,212) translate(442.555 151.6268032)"/><use xlink:href="#d" transform="matrix(1,0,0,1,14.666666666666742,212) translate(522.355 151.6268032)"/><path d="M134.67 21c0-2.76 2.24-5 5-5h634c2.76 0 5 2.24 5 5v146c0 2.76-2.24 5-5 5h-634c-2.76 0-5-2.24-5-5z" stroke="#000" stroke-width="2" fill="#fff"/><use xlink:href="#e" transform="matrix(1,0,0,1,134.6666666666668,16) translate(274.58 19.41)"/><path d="M254.67 57c0-2.76 2.24-5 5-5h150c2.76 0 5 2.24 5 5v70c0 2.76-2.24 5-5 5h-150c-2.76 0-5-2.24-5-5z" stroke="#000" stroke-width="2" fill="#fff"/><use xlink:href="#f" transform="matrix(1,0,0,1,254.66666666666674,52) translate(46.55499999999999 31.9)"/><use xlink:href="#g" transform="matrix(1,0,0,1,254.66666666666674,52) translate(32.57999999999999 53.5)"/><path d="M494.67 57c0-2.76 2.24-5 5-5h150c2.76 0 5 2.24 5 5v70c0 2.76-2.24 5-5 5h-150c-2.76 0-5-2.24-5-5z" stroke="#000" stroke-width="2" fill="#fff"/><use xlink:href="#h" transform="matrix(1,0,0,1,494.66666666666674,52) translate(42.57999999999999 31.9)"/><use xlink:href="#g" transform="matrix(1,0,0,1,494.66666666666674,52) translate(32.57999999999999 53.5)"/><path d="M54.67 257c0-2.76 2.24-5 5-5h230c2.76 0 5 2.24 5 5v70c0 2.76-2.24 5-5 5h-230c-2.76 0-5-2.24-5-5z" stroke="#000" stroke-width="2" fill="#fff"/><use xlink:href="#i" transform="matrix(1,0,0,1,54.66666666666674,252) translate(24.654999999999994 31.9)"/><use xlink:href="#j" transform="matrix(1,0,0,1,54.66666666666674,252) translate(103.555 31.9)"/><use xlink:href="#k" transform="matrix(1,0,0,1,54.66666666666674,252) translate(185.35500000000002 31.9)"/><use xlink:href="#l" transform="matrix(1,0,0,1,54.66666666666674,252) translate(15.704999999999993 53.5)"/><use xlink:href="#m" transform="matrix(1,0,0,1,54.66666666666674,252) translate(105.555 53.5)"/><path d="M334.67 257c0-2.76 2.24-5 5-5h230c2.76 0 5 2.24 5 5v70c0 2.76-2.24 5-5 5h-230c-2.76 0-5-2.24-5-5z" stroke="#000" stroke-width="2" fill="#fff"/><use xlink:href="#a" transform="matrix(1,0,0,1,334.66666666666674,252) translate(65.08 31.9)"/><use xlink:href="#n" transform="matrix(1,0,0,1,334.66666666666674,252) translate(149.93 31.9)"/><use xlink:href="#o" transform="matrix(1,0,0,1,334.66666666666674,252) translate(19.20499999999999 53.5)"/><use xlink:href="#p" transform="matrix(1,0,0,1,334.66666666666674,252) translate(165.905 53.5)"/><path d="M614.67 257c0-2.76 2.24-5 5-5h268.66c2.76 0 5 2.24 5 5v70c0 2.76-2.24 5-5 5H619.67c-2.76 0-5-2.24-5-5z" stroke="#000" stroke-width="2" fill="#fff"/><use xlink:href="#a" transform="matrix(1,0,0,1,614.6666666666667,252) translate(8.679999999999987 31.9)"/><use xlink:href="#q" transform="matrix(1,0,0,1,614.6666666666667,252) translate(93.53 31.9)"/><use xlink:href="#r" transform="matrix(1,0,0,1,614.6666666666667,252) translate(123.53 31.9)"/><use xlink:href="#s" transform="matrix(1,0,0,1,614.6666666666667,252) translate(190.43 31.9)"/><use xlink:href="#t" transform="matrix(1,0,0,1,614.6666666666667,252) translate(36.65499999999998 53.5)"/><use xlink:href="#u" transform="matrix(1,0,0,1,614.6666666666667,252) translate(71.65499999999997 53.5)"/><use xlink:href="#v" transform="matrix(1,0,0,1,614.6666666666667,252) translate(182.405 53.5)"/><path d="M334.67 132l-.03 1.4-.1 1.35-.13 1.32-.18 1.3-.24 1.28-.3 1.27-.35 1.25-.4 1.26-.47 1.25-.53 1.25-.6 1.27-.67 1.3-.75 1.3-.84 1.32-.95 1.37-1.06 1.4-1.2 1.46-1.38 1.52-1.56 1.6-1.8 1.67-2.06 1.8-2.43 1.9-2.85 2.1-3.45 2.28-4.24 2.56-5.4 2.94-7.18 3.57-10.72 4.76-66.9 26.63-7.2 3.56-5.38 2.95-4.24 2.57-3.45 2.3-2.88 2.07-2.42 1.92-2.07 1.8-1.8 1.67-1.56 1.6-1.37 1.5-1.2 1.47-1.08 1.4-.95 1.38-.84 1.33-.76 1.3-.67 1.3-.6 1.27-.52 1.25-.47 1.25-.4 1.26-.35 1.25-.3 1.27-.24 1.28-.18 1.3-.14 1.32-.08 1.36-.03 1.4" stroke="#000" stroke-width="2" fill="none"/><path d="M335.64 132.24l-.98-.24h1.04zM182.5 239.2l-7.83 12.8-1.18-14.95z"/><path d="M184.07 238.56L175.84 252h-2.18l-1.28-16.25zm-8.65 10.3l5.5-9-6.33-1.52z"/><path d="M334.67 132l.04 1.85.12 1.78.18 1.72.25 1.68.3 1.63.38 1.6.45 1.6.5 1.55.58 1.56.65 1.55.74 1.57.82 1.56.9 1.58 1.03 1.62 1.14 1.64 1.28 1.7 1.44 1.73 1.64 1.8 1.87 1.92 2.16 2.03 2.52 2.17 3 2.37 3.64 2.64 4.6 3.05 6.24 3.76 10.2 5.58 36.86 19.1 6.24 3.77 4.6 3.06 3.65 2.65 2.98 2.38 2.52 2.17 2.16 2.03 1.87 1.9 1.64 1.83 1.45 1.75 1.28 1.7 1.14 1.63 1.02 1.6.9 1.6.83 1.55.72 1.56.65 1.54.58 1.55.5 1.55.45 1.58.38 1.6.3 1.64.26 1.68.18 1.72.1 1.78.05 1.85" stroke="#000" stroke-width="2" fill="none"/><path d="M333.68 132.18l-.03-.18h1.03zM454.67 252l-7.13-13.2 9.12-1.67z"/><path d="M455.68 252h-2.15L446 238.07l11.83-2.17zm-6.6-12.46l5 9.28 1.4-10.46z"/><path d="M334.67 132v.54l.04.53.07.53.08.53.1.53.12.53.15.53.18.55.2.55.24.57.28.58.3.6.36.6.4.65.47.66.53.7.6.72.7.77.8.8.95.9 1.1.94 1.28 1.02 1.54 1.1 1.85 1.23 2.23 1.35 2.76 1.52 3.47 1.7 4.45 2 5.85 2.3 7.95 2.76 11.3 3.4 17.1 4.35 29.15 6.13 74.4 12.2 151.72 23.4 29.14 6.12 17.12 4.36 11.3 3.4 7.94 2.75 5.85 2.3 4.45 2 3.47 1.7 2.77 1.52 2.24 1.36 1.84 1.23 1.54 1.1 1.3 1.03 1.08.95.94.9.8.8.7.78.6.73.53.7.48.67.4.64.36.63.3.6.28.57.24.57.2.55.18.55.15.54.12.54.1.53.08.53.06.53.03.53v.54" stroke="#000" stroke-width="2" fill="none"/><path d="M333.8 132.48l-.27-.48h1.14zM754 252l-10.9-10.3 8.12-4.44z"/><path d="M755.02 252h-2.48l-11.14-10.5 10.55-5.78zm-10.24-10.08l7.67 7.24-1.96-10.36z"/><path d="M574.67 132l-.02.56-.03.56-.06.56-.08.55-.1.55-.14.56-.15.56-.2.57-.2.58-.26.6-.3.6-.3.62-.38.64-.42.67-.5.7-.54.72-.63.75-.72.8-.83.85-.97.9-1.14 1-1.32 1.04-1.6 1.15-1.9 1.26-2.3 1.4-2.86 1.56-3.58 1.77-4.58 2.03-6.02 2.38-8.2 2.85-11.64 3.5-17.75 4.52-30.8 6.47-11.3 1.9m0 0c-.46-2.7-3.04-4.55-5.76-4.1-2.73.47-4.57 3.05-4.1 5.77l-57.6 9.74m0 0c-.46-2.73-3.04-4.56-5.76-4.1-2.73.46-4.56 3.04-4.1 5.76l-141.16 23.83-17.75 4.52-11.65 3.5-8.18 2.84-6.03 2.37-4.58 2.04-3.6 1.78-2.84 1.56-2.32 1.4-1.9 1.27-1.6 1.16-1.32 1.05-1.13 1-.98.9-.84.85-.72.8-.63.76-.55.74-.48.7-.42.65-.37.63-.32.63-.28.6-.25.6-.22.57-.18.57-.16.56-.14.56-.1.55-.1.55-.05.56-.02.56v.56" stroke="#000" stroke-width="2" fill="none"/><path d="M575.55 132.47l-.9-.47h1.15zM185.42 241.54L174.67 252l2.54-14.78z"/><path d="M187.1 241.3l-11 10.7h-2.45l2.8-16.3zm-10.93 7.84l7.56-7.36-5.76-3.04z"/><path d="M574.67 132l-.04 1.85-.1 1.78-.2 1.72-.24 1.68-.32 1.63-.38 1.6-.44 1.6-.5 1.55-.6 1.56-.64 1.55-.73 1.57-.83 1.56-.9 1.58-1.03 1.62-1.14 1.64-1.28 1.7-1.45 1.73-1.64 1.8-1.87 1.92-2.16 2.03-2.52 2.17-3 2.37-3.64 2.64-4.6 3.05-6.24 3.76-10.2 5.58-2.43 1.25m0 0c-1.27-2.46-4.3-3.42-6.74-2.15-2.45 1.28-3.4 4.3-2.14 6.74l-25.56 13.24-6.24 3.77-4.6 3.06-3.65 2.65-3 2.38-2.52 2.17-2.16 2.03-1.87 1.9-1.64 1.83-1.44 1.75-1.28 1.7-1.15 1.63-1.03 1.6-.9 1.6-.83 1.55-.73 1.56-.64 1.54-.58 1.55-.5 1.55-.45 1.58-.37 1.6-.3 1.64-.26 1.68-.18 1.72-.1 1.78-.05 1.85" stroke="#000" stroke-width="2" fill="none"/><path d="M575.65 132.18l-1-.18h1.03zM461.8 238.8l-7.13 13.2-2-14.87z"/><path d="M463.33 238.07L455.8 252h-2.14l-2.16-16.1zm-8.08 10.75l5-9.28-6.4-1.18z"/><path d="M574.67 132l.02 1.25.07 1.2.12 1.2.17 1.17.22 1.16.26 1.15.32 1.14.37 1.14.42 1.16.5 1.15.54 1.18.62 1.18.7 1.2.78 1.23.88 1.26 1 1.3 1.12 1.36 1.27 1.42 1.46 1.48 1.67 1.57 1.93 1.66 2.25 1.78 2.66 1.93 3.18 2.1 3.88 2.35 4.83 2.66 6.25 3.1 8.55 3.78 13.26 5.22 73.94 26.26 8.55 3.8 6.23 3.08 4.84 2.66 3.87 2.34 3.18 2.1 2.66 1.94 2.26 1.78 1.93 1.67 1.67 1.58 1.45 1.48 1.27 1.42 1.12 1.35.98 1.3.88 1.28.8 1.24.68 1.2.62 1.18.55 1.17.5 1.14.42 1.15.37 1.13.3 1.14.28 1.15.22 1.16.17 1.17.13 1.2.07 1.2.03 1.25" stroke="#000" stroke-width="2" fill="none"/><path d="M573.7 132.26l-.07-.26h1.04zM754 252l-8.15-12.6 8.96-2.38z"/><path d="M755 252h-2.2l-8.54-13.2 11.62-3.1zm-7.56-11.98l5.73 8.85.57-10.53z"/><defs><path d="M30-248c118-7 216 8 213 122C240-48 200 0 122 0H30v-248zM63-27c89 8 146-16 146-99s-60-101-146-95v194" id="w"/><path d="M100-194c63 0 86 42 84 106H49c0 40 14 67 53 68 26 1 43-12 49-29l28 8c-11 28-37 45-77 45C44 4 14-33 15-96c1-61 26-98 85-98zm52 81c6-60-76-77-97-28-3 7-6 17-6 28h103" id="x"/><path d="M135-143c-3-34-86-38-87 0 15 53 115 12 119 90S17 21 10-45l28-5c4 36 97 45 98 0-10-56-113-15-118-90-4-57 82-63 122-42 12 7 21 19 24 35" id="y"/><path d="M24-231v-30h32v30H24zM24 0v-190h32V0H24" id="z"/><path d="M177-190C167-65 218 103 67 71c-23-6-38-20-44-43l32-5c15 47 100 32 89-28v-30C133-14 115 1 83 1 29 1 15-40 15-95c0-56 16-97 71-98 29-1 48 16 59 35 1-10 0-23 2-32h30zM94-22c36 0 50-32 50-73 0-42-14-75-50-75-39 0-46 34-46 75s6 73 46 73" id="A"/><path d="M117-194c89-4 53 116 60 194h-32v-121c0-31-8-49-39-48C34-167 62-67 57 0H25l-1-190h30c1 10-1 24 2 32 11-22 29-35 61-36" id="B"/><g id="a"><use transform="matrix(0.05,0,0,0.05,0,0)" xlink:href="#w"/><use transform="matrix(0.05,0,0,0.05,12.950000000000001,0)" xlink:href="#x"/><use transform="matrix(0.05,0,0,0.05,22.950000000000003,0)" xlink:href="#y"/><use transform="matrix(0.05,0,0,0.05,31.950000000000003,0)" xlink:href="#z"/><use transform="matrix(0.05,0,0,0.05,35.900000000000006,0)" xlink:href="#A"/><use transform="matrix(0.05,0,0,0.05,45.900000000000006,0)" xlink:href="#B"/><use transform="matrix(0.05,0,0,0.05,55.900000000000006,0)" xlink:href="#z"/><use transform="matrix(0.05,0,0,0.05,59.85,0)" xlink:href="#B"/><use transform="matrix(0.05,0,0,0.05,69.85000000000001,0)" xlink:href="#A"/></g><path d="M141-36C126-15 110 5 73 4 37 3 15-17 15-53c-1-64 63-63 125-63 3-35-9-54-41-54-24 1-41 7-42 31l-33-3c5-37 33-52 76-52 45 0 72 20 72 64v82c-1 20 7 32 28 27v20c-31 9-61-2-59-35zM48-53c0 20 12 33 32 33 41-3 63-29 60-74-43 2-92-5-92 41" id="C"/><use transform="matrix(0.05,0,0,0.05,0,0)" xlink:href="#C" id="b"/><path d="M160-131c35 5 61 23 61 61C221 17 115-2 30 0v-248c76 3 177-17 177 60 0 33-19 50-47 57zm-97-11c50-1 110 9 110-42 0-47-63-36-110-37v79zm0 115c55-2 124 14 124-45 0-56-70-42-124-44v89" id="D"/><path d="M100-194c62-1 85 37 85 99 1 63-27 99-86 99S16-35 15-95c0-66 28-99 85-99zM99-20c44 1 53-31 53-75 0-43-8-75-51-75s-53 32-53 75 10 74 51 75" id="E"/><path d="M210-169c-67 3-38 105-44 169h-31v-121c0-29-5-50-35-48C34-165 62-65 56 0H25l-1-190h30c1 10-1 24 2 32 10-44 99-50 107 0 11-21 27-35 58-36 85-2 47 119 55 194h-31v-121c0-29-5-49-35-48" id="F"/><path d="M59-47c-2 24 18 29 38 22v24C64 9 27 4 27-40v-127H5v-23h24l9-43h21v43h35v23H59v120" id="G"/><path d="M114-163C36-179 61-72 57 0H25l-1-190h30c1 12-1 29 2 39 6-27 23-49 58-41v29" id="H"/><path d="M96-169c-40 0-48 33-48 73s9 75 48 75c24 0 41-14 43-38l32 2c-6 37-31 61-74 61-59 0-76-41-82-99-10-93 101-131 147-64 4 7 5 14 7 22l-32 3c-4-21-16-35-41-35" id="I"/><g id="c"><use transform="matrix(0.05,0,0,0.05,0,0)" xlink:href="#D"/><use transform="matrix(0.05,0,0,0.05,12,0)" xlink:href="#z"/><use transform="matrix(0.05,0,0,0.05,15.949999999999998,0)" xlink:href="#E"/><use transform="matrix(0.05,0,0,0.05,25.950000000000003,0)" xlink:href="#F"/><use transform="matrix(0.05,0,0,0.05,40.9,0)" xlink:href="#x"/><use transform="matrix(0.05,0,0,0.05,50.9,0)" xlink:href="#G"/><use transform="matrix(0.05,0,0,0.05,55.900000000000006,0)" xlink:href="#H"/><use transform="matrix(0.05,0,0,0.05,61.85,0)" xlink:href="#z"/><use transform="matrix(0.05,0,0,0.05,65.8,0)" xlink:href="#I"/></g><path d="M185-189c-5-48-123-54-124 2 14 75 158 14 163 119 3 78-121 87-175 55-17-10-28-26-33-46l33-7c5 56 141 63 141-1 0-78-155-14-162-118-5-82 145-84 179-34 5 7 8 16 11 25" id="J"/><path d="M179-190L93 31C79 59 56 82 12 73V49c39 6 53-20 64-50L1-190h34L92-34l54-156h33" id="K"/><g id="d"><use transform="matrix(0.05,0,0,0.05,0,0)" xlink:href="#J"/><use transform="matrix(0.05,0,0,0.05,12,0)" xlink:href="#K"/><use transform="matrix(0.05,0,0,0.05,21,0)" xlink:href="#y"/><use transform="matrix(0.05,0,0,0.05,30,0)" xlink:href="#G"/><use transform="matrix(0.05,0,0,0.05,35,0)" xlink:href="#x"/><use transform="matrix(0.05,0,0,0.05,45,0)" xlink:href="#F"/></g><path d="M30 0v-248h187v28H63v79h144v27H63v87h162V0H30" id="L"/><g id="e"><use transform="matrix(0.05,0,0,0.05,0,0)" xlink:href="#L"/><use transform="matrix(0.05,0,0,0.05,12,0)" xlink:href="#H"/><use transform="matrix(0.05,0,0,0.05,17.95,0)" xlink:href="#A"/><use transform="matrix(0.05,0,0,0.05,27.950000000000003,0)" xlink:href="#E"/><use transform="matrix(0.05,0,0,0.05,37.95,0)" xlink:href="#B"/><use transform="matrix(0.05,0,0,0.05,47.95,0)" xlink:href="#E"/><use transform="matrix(0.05,0,0,0.05,57.95,0)" xlink:href="#F"/><use transform="matrix(0.05,0,0,0.05,72.9,0)" xlink:href="#z"/><use transform="matrix(0.05,0,0,0.05,76.85000000000001,0)" xlink:href="#I"/><use transform="matrix(0.05,0,0,0.05,85.85000000000001,0)" xlink:href="#y"/></g><path d="M30-248c87 1 191-15 191 75 0 78-77 80-158 76V0H30v-248zm33 125c57 0 124 11 124-50 0-59-68-47-124-48v98" id="M"/><path d="M106-169C34-169 62-67 57 0H25v-261h32l-1 103c12-21 28-36 61-36 89 0 53 116 60 194h-32v-121c2-32-8-49-39-48" id="N"/><path d="M24 0v-261h32V0H24" id="O"/><g id="f"><use transform="matrix(0.05,0,0,0.05,0,0)" xlink:href="#M"/><use transform="matrix(0.05,0,0,0.05,12,0)" xlink:href="#N"/><use transform="matrix(0.05,0,0,0.05,22,0)" xlink:href="#K"/><use transform="matrix(0.05,0,0,0.05,31,0)" xlink:href="#y"/><use transform="matrix(0.05,0,0,0.05,40,0)" xlink:href="#z"/><use transform="matrix(0.05,0,0,0.05,43.95,0)" xlink:href="#I"/><use transform="matrix(0.05,0,0,0.05,52.95,0)" xlink:href="#C"/><use transform="matrix(0.05,0,0,0.05,62.95,0)" xlink:href="#O"/></g><g id="g"><use transform="matrix(0.05,0,0,0.05,0,0)" xlink:href="#L"/><use transform="matrix(0.05,0,0,0.05,12,0)" xlink:href="#H"/><use transform="matrix(0.05,0,0,0.05,17.95,0)" xlink:href="#A"/><use transform="matrix(0.05,0,0,0.05,27.950000000000003,0)" xlink:href="#E"/><use transform="matrix(0.05,0,0,0.05,37.95,0)" xlink:href="#B"/><use transform="matrix(0.05,0,0,0.05,47.95,0)" xlink:href="#E"/><use transform="matrix(0.05,0,0,0.05,57.95,0)" xlink:href="#F"/><use transform="matrix(0.05,0,0,0.05,72.9,0)" xlink:href="#z"/><use transform="matrix(0.05,0,0,0.05,76.85000000000001,0)" xlink:href="#I"/><use transform="matrix(0.05,0,0,0.05,85.85000000000001,0)" xlink:href="#y"/></g><path d="M212-179c-10-28-35-45-73-45-59 0-87 40-87 99 0 60 29 101 89 101 43 0 62-24 78-52l27 14C228-24 195 4 139 4 59 4 22-46 18-125c-6-104 99-153 187-111 19 9 31 26 39 46" id="P"/><path d="M108 0H70L1-190h34L89-25l56-165h34" id="Q"/><g id="h"><use transform="matrix(0.05,0,0,0.05,0,0)" xlink:href="#P"/><use transform="matrix(0.05,0,0,0.05,12.950000000000001,0)" xlink:href="#E"/><use transform="matrix(0.05,0,0,0.05,22.950000000000003,0)" xlink:href="#A"/><use transform="matrix(0.05,0,0,0.05,32.95,0)" xlink:href="#B"/><use transform="matrix(0.05,0,0,0.05,42.95,0)" xlink:href="#z"/><use transform="matrix(0.05,0,0,0.05,46.900000000000006,0)" xlink:href="#G"/><use transform="matrix(0.05,0,0,0.05,51.900000000000006,0)" xlink:href="#z"/><use transform="matrix(0.05,0,0,0.05,55.85,0)" xlink:href="#Q"/><use transform="matrix(0.05,0,0,0.05,64.85000000000001,0)" xlink:href="#x"/></g><g id="i"><use transform="matrix(0.05,0,0,0.05,0,0)" xlink:href="#J"/><use transform="matrix(0.05,0,0,0.05,12,0)" xlink:href="#x"/><use transform="matrix(0.05,0,0,0.05,22,0)" xlink:href="#O"/><use transform="matrix(0.05,0,0,0.05,25.950000000000003,0)" xlink:href="#x"/><use transform="matrix(0.05,0,0,0.05,35.95,0)" xlink:href="#I"/><use transform="matrix(0.05,0,0,0.05,44.95,0)" xlink:href="#G"/><use transform="matrix(0.05,0,0,0.05,49.95,0)" xlink:href="#z"/><use transform="matrix(0.05,0,0,0.05,53.900000000000006,0)" xlink:href="#B"/><use transform="matrix(0.05,0,0,0.05,63.900000000000006,0)" xlink:href="#A"/></g><g id="j"><use transform="matrix(0.05,0,0,0.05,0,0)" xlink:href="#D"/><use transform="matrix(0.05,0,0,0.05,12,0)" xlink:href="#z"/><use transform="matrix(0.05,0,0,0.05,15.949999999999998,0)" xlink:href="#E"/><use transform="matrix(0.05,0,0,0.05,25.950000000000003,0)" xlink:href="#O"/><use transform="matrix(0.05,0,0,0.05,29.899999999999995,0)" xlink:href="#E"/><use transform="matrix(0.05,0,0,0.05,39.9,0)" xlink:href="#A"/><use transform="matrix(0.05,0,0,0.05,49.9,0)" xlink:href="#z"/><use transform="matrix(0.05,0,0,0.05,53.85,0)" xlink:href="#I"/><use transform="matrix(0.05,0,0,0.05,62.85,0)" xlink:href="#C"/><use transform="matrix(0.05,0,0,0.05,72.85,0)" xlink:href="#O"/></g><path d="M85-194c31 0 48 13 60 33l-1-100h32l1 261h-30c-2-10 0-23-3-31C134-8 116 4 85 4 32 4 16-35 15-94c0-66 23-100 70-100zm9 24c-40 0-46 34-46 75 0 40 6 74 45 74 42 0 51-32 51-76 0-42-9-74-50-73" id="R"/><g id="k"><use transform="matrix(0.05,0,0,0.05,0,0)" xlink:href="#C"/><use transform="matrix(0.05,0,0,0.05,10,0)" xlink:href="#B"/><use transform="matrix(0.05,0,0,0.05,20,0)" xlink:href="#R"/></g><g id="l"><use transform="matrix(0.05,0,0,0.05,0,0)" xlink:href="#D"/><use transform="matrix(0.05,0,0,0.05,12,0)" xlink:href="#x"/><use transform="matrix(0.05,0,0,0.05,22,0)" xlink:href="#N"/><use transform="matrix(0.05,0,0,0.05,32,0)" xlink:href="#C"/><use transform="matrix(0.05,0,0,0.05,42,0)" xlink:href="#Q"/><use transform="matrix(0.05,0,0,0.05,51,0)" xlink:href="#z"/><use transform="matrix(0.05,0,0,0.05,54.95,0)" xlink:href="#E"/><use transform="matrix(0.05,0,0,0.05,64.95,0)" xlink:href="#H"/><use transform="matrix(0.05,0,0,0.05,70.9,0)" xlink:href="#C"/><use transform="matrix(0.05,0,0,0.05,80.9,0)" xlink:href="#O"/></g><g id="m"><use transform="matrix(0.05,0,0,0.05,0,0)" xlink:href="#P"/><use transform="matrix(0.05,0,0,0.05,12.950000000000001,0)" xlink:href="#N"/><use transform="matrix(0.05,0,0,0.05,22.950000000000003,0)" xlink:href="#C"/><use transform="matrix(0.05,0,0,0.05,32.95,0)" xlink:href="#H"/><use transform="matrix(0.05,0,0,0.05,38.900000000000006,0)" xlink:href="#C"/><use transform="matrix(0.05,0,0,0.05,48.900000000000006,0)" xlink:href="#I"/><use transform="matrix(0.05,0,0,0.05,57.900000000000006,0)" xlink:href="#G"/><use transform="matrix(0.05,0,0,0.05,62.900000000000006,0)" xlink:href="#x"/><use transform="matrix(0.05,0,0,0.05,72.9,0)" xlink:href="#H"/><use transform="matrix(0.05,0,0,0.05,78.85000000000001,0)" xlink:href="#z"/><use transform="matrix(0.05,0,0,0.05,82.80000000000001,0)" xlink:href="#y"/><use transform="matrix(0.05,0,0,0.05,91.80000000000001,0)" xlink:href="#G"/><use transform="matrix(0.05,0,0,0.05,96.80000000000001,0)" xlink:href="#z"/><use transform="matrix(0.05,0,0,0.05,100.75000000000001,0)" xlink:href="#I"/><use transform="matrix(0.05,0,0,0.05,109.75,0)" xlink:href="#y"/></g><g id="n"><use transform="matrix(0.05,0,0,0.05,0,0)" xlink:href="#G"/><use transform="matrix(0.05,0,0,0.05,5,0)" xlink:href="#N"/><use transform="matrix(0.05,0,0,0.05,15,0)" xlink:href="#x"/></g><path d="M115-194c55 1 70 41 70 98S169 2 115 4C84 4 66-9 55-30l1 105H24l-1-265h31l2 30c10-21 28-34 59-34zm-8 174c40 0 45-34 45-75s-6-73-45-74c-42 0-51 32-51 76 0 43 10 73 51 73" id="S"/><path d="M16-82v-28h88v28H16" id="T"/><g id="o"><use transform="matrix(0.05,0,0,0.05,0,0)" xlink:href="#J"/><use transform="matrix(0.05,0,0,0.05,12,0)" xlink:href="#C"/><use transform="matrix(0.05,0,0,0.05,22,0)" xlink:href="#F"/><use transform="matrix(0.05,0,0,0.05,36.95,0)" xlink:href="#S"/><use transform="matrix(0.05,0,0,0.05,46.95,0)" xlink:href="#O"/><use transform="matrix(0.05,0,0,0.05,50.900000000000006,0)" xlink:href="#x"/><use transform="matrix(0.05,0,0,0.05,60.900000000000006,0)" xlink:href="#T"/><use transform="matrix(0.05,0,0,0.05,66.85000000000001,0)" xlink:href="#I"/><use transform="matrix(0.05,0,0,0.05,75.85000000000001,0)" xlink:href="#E"/><use transform="matrix(0.05,0,0,0.05,85.85000000000001,0)" xlink:href="#O"/><use transform="matrix(0.05,0,0,0.05,89.80000000000001,0)" xlink:href="#O"/><use transform="matrix(0.05,0,0,0.05,93.75000000000001,0)" xlink:href="#x"/><use transform="matrix(0.05,0,0,0.05,103.75,0)" xlink:href="#I"/><use transform="matrix(0.05,0,0,0.05,112.75,0)" xlink:href="#G"/><use transform="matrix(0.05,0,0,0.05,117.75,0)" xlink:href="#z"/><use transform="matrix(0.05,0,0,0.05,121.7,0)" xlink:href="#B"/><use transform="matrix(0.05,0,0,0.05,131.70000000000002,0)" xlink:href="#A"/></g><g id="p"><use transform="matrix(0.05,0,0,0.05,0,0)" xlink:href="#w"/><use transform="matrix(0.05,0,0,0.05,12.950000000000001,0)" xlink:href="#x"/><use transform="matrix(0.05,0,0,0.05,22.950000000000003,0)" xlink:href="#Q"/><use transform="matrix(0.05,0,0,0.05,31.950000000000003,0)" xlink:href="#z"/><use transform="matrix(0.05,0,0,0.05,35.900000000000006,0)" xlink:href="#I"/><use transform="matrix(0.05,0,0,0.05,44.900000000000006,0)" xlink:href="#x"/></g><g id="q"><use transform="matrix(0.05,0,0,0.05,0,0)" xlink:href="#G"/><use transform="matrix(0.05,0,0,0.05,5,0)" xlink:href="#N"/><use transform="matrix(0.05,0,0,0.05,15,0)" xlink:href="#x"/></g><path d="M63-220v92h138v28H63V0H30v-248h175v28H63" id="U"/><path d="M84 4C-5 8 30-112 23-190h32v120c0 31 7 50 39 49 72-2 45-101 50-169h31l1 190h-30c-1-10 1-25-2-33-11 22-28 36-60 37" id="V"/><g id="r"><use transform="matrix(0.05,0,0,0.05,0,0)" xlink:href="#U"/><use transform="matrix(0.05,0,0,0.05,10.950000000000001,0)" xlink:href="#x"/><use transform="matrix(0.05,0,0,0.05,20.950000000000003,0)" xlink:href="#C"/><use transform="matrix(0.05,0,0,0.05,30.950000000000003,0)" xlink:href="#G"/><use transform="matrix(0.05,0,0,0.05,35.95,0)" xlink:href="#V"/><use transform="matrix(0.05,0,0,0.05,45.95,0)" xlink:href="#H"/><use transform="matrix(0.05,0,0,0.05,51.900000000000006,0)" xlink:href="#x"/></g><path d="M141 0L90-78 38 0H4l68-98-65-92h35l48 74 47-74h35l-64 92 68 98h-35" id="W"/><g id="s"><use transform="matrix(0.05,0,0,0.05,0,0)" xlink:href="#L"/><use transform="matrix(0.05,0,0,0.05,12,0)" xlink:href="#W"/><use transform="matrix(0.05,0,0,0.05,21,0)" xlink:href="#G"/><use transform="matrix(0.05,0,0,0.05,26,0)" xlink:href="#H"/><use transform="matrix(0.05,0,0,0.05,31.950000000000003,0)" xlink:href="#C"/><use transform="matrix(0.05,0,0,0.05,41.95,0)" xlink:href="#I"/><use transform="matrix(0.05,0,0,0.05,50.95,0)" xlink:href="#G"/><use transform="matrix(0.05,0,0,0.05,55.95,0)" xlink:href="#z"/><use transform="matrix(0.05,0,0,0.05,59.900000000000006,0)" xlink:href="#E"/><use transform="matrix(0.05,0,0,0.05,69.9,0)" xlink:href="#B"/></g><g id="t"><use transform="matrix(0.05,0,0,0.05,0,0)" xlink:href="#C"/><use transform="matrix(0.05,0,0,0.05,10,0)" xlink:href="#B"/><use transform="matrix(0.05,0,0,0.05,20,0)" xlink:href="#R"/></g><path d="M101-234c-31-9-42 10-38 44h38v23H63V0H32v-167H5v-23h27c-7-52 17-82 69-68v24" id="X"/><g id="u"><use transform="matrix(0.05,0,0,0.05,0,0)" xlink:href="#P"/><use transform="matrix(0.05,0,0,0.05,12.950000000000001,0)" xlink:href="#O"/><use transform="matrix(0.05,0,0,0.05,16.900000000000002,0)" xlink:href="#C"/><use transform="matrix(0.05,0,0,0.05,26.900000000000002,0)" xlink:href="#y"/><use transform="matrix(0.05,0,0,0.05,35.900000000000006,0)" xlink:href="#y"/><use transform="matrix(0.05,0,0,0.05,44.900000000000006,0)" xlink:href="#z"/><use transform="matrix(0.05,0,0,0.05,48.85000000000001,0)" xlink:href="#X"/><use transform="matrix(0.05,0,0,0.05,53.85,0)" xlink:href="#z"/><use transform="matrix(0.05,0,0,0.05,57.80000000000001,0)" xlink:href="#I"/><use transform="matrix(0.05,0,0,0.05,66.80000000000001,0)" xlink:href="#C"/><use transform="matrix(0.05,0,0,0.05,76.80000000000001,0)" xlink:href="#G"/><use transform="matrix(0.05,0,0,0.05,81.80000000000001,0)" xlink:href="#z"/><use transform="matrix(0.05,0,0,0.05,85.75000000000001,0)" xlink:href="#E"/><use transform="matrix(0.05,0,0,0.05,95.75000000000001,0)" xlink:href="#B"/></g><path d="M240 0l2-218c-23 76-54 145-80 218h-23L58-218 59 0H30v-248h44l77 211c21-75 51-140 76-211h43V0h-30" id="Y"/><g id="v"><use transform="matrix(0.05,0,0,0.05,0,0)" xlink:href="#Y"/><use transform="matrix(0.05,0,0,0.05,14.950000000000001,0)" xlink:href="#x"/><use transform="matrix(0.05,0,0,0.05,24.950000000000003,0)" xlink:href="#G"/><use transform="matrix(0.05,0,0,0.05,29.950000000000003,0)" xlink:href="#N"/><use transform="matrix(0.05,0,0,0.05,39.95,0)" xlink:href="#E"/><use transform="matrix(0.05,0,0,0.05,49.95,0)" xlink:href="#R"/></g></defs></g></svg>