<svg xmlns="http://www.w3.org/2000/svg" xmlns:xlink="http://www.w3.org/1999/xlink" width="536" height="720"><g transform="translate(0 0)"><path d="M78 45c0-2.76 2.24-5 5-5h370c2.76 0 5 2.24 5 5v110c0 2.76-2.24 5-5 5H83c-2.76 0-5-2.24-5-5z" stroke="#000" stroke-width="2" fill="#fff"/><use xlink:href="#a" transform="matrix(1,0,0,1,78,40) translate(159.02999999999997 19.41)"/><path d="M140 85c0-2.76 2.24-5 5-5h70c2.76 0 5 2.24 5 5v50c0 2.76-2.24 5-5 5h-70c-2.76 0-5-2.24-5-5z" stroke="#000" stroke-width="2" fill="#fff"/><use xlink:href="#b" transform="matrix(1,0,0,1,140,80) translate(7.929999999999994 19.41)"/><use xlink:href="#c" transform="matrix(1,0,0,1,140,80) translate(10.53 41.01)"/><path d="M320 85c0-2.76 2.24-5 5-5h70c2.76 0 5 2.24 5 5v50c0 2.76-2.24 5-5 5h-70c-2.76 0-5-2.24-5-5z" stroke="#000" stroke-width="2" fill="#fff"/><use xlink:href="#d" transform="matrix(1,0,0,1,320,80) translate(11.554999999999998 19.41)"/><use xlink:href="#c" transform="matrix(1,0,0,1,320,80) translate(10.53 41.01)"/><path d="M300 205c0-2.76 2.24-5 5-5h110c2.76 0 5 2.24 5 5v50c0 2.76-2.24 5-5 5H305c-2.76 0-5-2.24-5-5z" stroke="#000" stroke-width="2" fill="#fff"/><use xlink:href="#e" transform="matrix(1,0,0,1,300,200) translate(23.529999999999994 33.15)"/><path d="M120 205c0-2.76 2.24-5 5-5h110c2.76 0 5 2.24 5 5v50c0 2.76-2.24 5-5 5H125c-2.76 0-5-2.24-5-5z" stroke="#000" stroke-width="2" fill="#fff"/><use xlink:href="#e" transform="matrix(1,0,0,1,120,200) translate(23.529999999999994 33.15)"/><path d="M150 305c0-2.76 2.24-5 5-5h50c2.76 0 5 2.24 5 5v50c0 2.76-2.24 5-5 5h-50c-2.76 0-5-2.24-5-5z" stroke="#000" stroke-width="2" fill="#fff"/><use xlink:href="#f" transform="matrix(1,0,0,1,150,300) translate(11.53 33.15)"/><path d="M330 305c0-2.76 2.24-5 5-5h50c2.76 0 5 2.24 5 5v50c0 2.76-2.24 5-5 5h-50c-2.76 0-5-2.24-5-5z" stroke="#000" stroke-width="2" fill="#fff"/><use xlink:href="#f" transform="matrix(1,0,0,1,330,300) translate(11.53 33.15)"/><path d="M36.75 405c0-2.76 2.24-5 5-5h276.5c2.76 0 5 2.24 5 5v70c0 2.76-2.24 5-5 5H41.75c-2.76 0-5-2.24-5-5z" stroke="#000" stroke-width="2" fill="#fff"/><use xlink:href="#g" transform="matrix(1,0,0,1,36.75,400) translate(93.75500000000001 44.4)"/><use xlink:href="#h" transform="matrix(1,0,0,1,36.75,400) translate(133.055 44.4)"/><path d="M300 525c0-2.76 2.24-5 5-5h110c2.76 0 5 2.24 5 5v50c0 2.76-2.24 5-5 5H305c-2.76 0-5-2.24-5-5z" stroke="#000" stroke-width="2" fill="#fff"/><use xlink:href="#g" transform="matrix(1,0,0,1,300,520) translate(11.904999999999996 33.15)"/><use xlink:href="#i" transform="matrix(1,0,0,1,300,520) translate(51.205 33.15)"/><path d="M149 535c0-2.76 2.24-5 5-5h50c2.76 0 5 2.24 5 5v30c0 2.76-2.24 5-5 5h-50c-2.76 0-5-2.24-5-5z" stroke="#000" stroke-width="2" fill="#fff"/><use xlink:href="#j" transform="matrix(1,0,0,1,149,530) translate(12.53 24.4)"/><use xlink:href="#k" transform="matrix(1,0,0,1,149,530) translate(35.480000000000004 24.4)"/><path d="M180 140v60" stroke="#000" stroke-width="2" fill="none"/><path d="M181 140h-2 2z"/><path d="M180 200l-4.64-14.27h9.28z" stroke="#000" stroke-width="2"/><path d="M360 140v60" stroke="#000" stroke-width="2" fill="none"/><path d="M361 140h-2 2zM360 200l-4.64-14.27h9.28z"/><path d="M361.05 200h-2.1L354 184.73h12zm-4.3-13.27l3.25 10.03 3.26-10.03z"/><path d="M180 260v40" stroke="#000" stroke-width="2" fill="none"/><path d="M181 260h-2 2zM180 300l-4.64-14.27h9.28z"/><path d="M181.05 300h-2.1L174 284.73h12zm-4.3-13.27l3.25 10.03 3.26-10.03z"/><path d="M360 260v40" stroke="#000" stroke-width="2" fill="none"/><path d="M361 260h-2 2zM360 300l-4.64-14.27h9.28z"/><path d="M361.05 300h-2.1L354 284.73h12zm-4.3-13.27l3.25 10.03 3.26-10.03z"/><path d="M180 360v40" stroke="#000" stroke-width="2" fill="none"/><path d="M181 360h-2 2zM180 400l-4.64-14.27h9.28z"/><path d="M181.05 400h-2.1L174 384.73h12zm-4.3-13.27l3.25 10.03 3.26-10.03z"/><path d="M360 360v160" stroke="#000" stroke-width="2" fill="none"/><path d="M361 360h-2 2zM360 520l-4.64-14.27h9.28z"/><path d="M361.05 520h-2.1L354 504.73h12zm-4.3-13.27l3.25 10.03 3.26-10.03z"/><path d="M180 480l-1 50" stroke="#000" stroke-width="2" fill="none"/><path d="M181 480.02l-1.04-.02H181zM183.92 515.83L179 530l-4.35-14.36z"/><path d="M185.32 514.86L180.06 530h-2.1l-4.67-15.38zm-6.26 11.9l3.46-9.96-6.5-.13z"/><path d="M209 550h91" stroke="#000" stroke-width="2" fill="none"/><path d="M209 551v-2zM300 550l-14.27 4.64v-9.28z"/><path d="M300 548.95v2.1L284.73 556v-12zm-13.27 4.3l10.03-3.25-10.03-3.26z"/><path d="M210 330h120" stroke="#000" stroke-width="2" fill="none"/><path d="M210 331v-2zM330 330l-14.27 4.64v-9.28z"/><path d="M330 328.95v2.1L314.73 336v-12zm-13.27 4.3l10.03-3.25-10.03-3.26z"/><path d="M320 625c0-2.76 2.24-5 5-5h70c2.76 0 5 2.24 5 5v50c0 2.76-2.24 5-5 5h-70c-2.76 0-5-2.24-5-5z" stroke="#000" stroke-width="2" fill="#fff"/><use xlink:href="#d" transform="matrix(1,0,0,1,320,620) translate(11.554999999999998 19.41)"/><use xlink:href="#l" transform="matrix(1,0,0,1,320,620) translate(10.054999999999994 41.01)"/><path d="M360 580v40" stroke="#000" stroke-width="2" fill="none"/><path d="M361 580h-2 2zM360 620l-4.64-14.27h9.28z"/><path d="M361.05 620h-2.1L354 604.73h12zm-4.3-13.27l3.25 10.03 3.26-10.03z"/><defs><path d="M30-248c118-7 216 8 213 122C240-48 200 0 122 0H30v-248zM63-27c89 8 146-16 146-99s-60-101-146-95v194" id="m"/><path d="M141-36C126-15 110 5 73 4 37 3 15-17 15-53c-1-64 63-63 125-63 3-35-9-54-41-54-24 1-41 7-42 31l-33-3c5-37 33-52 76-52 45 0 72 20 72 64v82c-1 20 7 32 28 27v20c-31 9-61-2-59-35zM48-53c0 20 12 33 32 33 41-3 63-29 60-74-43 2-92-5-92 41" id="n"/><path d="M59-47c-2 24 18 29 38 22v24C64 9 27 4 27-40v-127H5v-23h24l9-43h21v43h35v23H59v120" id="o"/><path d="M135-143c-3-34-86-38-87 0 15 53 115 12 119 90S17 21 10-45l28-5c4 36 97 45 98 0-10-56-113-15-118-90-4-57 82-63 122-42 12 7 21 19 24 35" id="p"/><path d="M100-194c63 0 86 42 84 106H49c0 40 14 67 53 68 26 1 43-12 49-29l28 8c-11 28-37 45-77 45C44 4 14-33 15-96c1-61 26-98 85-98zm52 81c6-60-76-77-97-28-3 7-6 17-6 28h103" id="q"/><g id="a"><use transform="matrix(0.05,0,0,0.05,0,0)" xlink:href="#m"/><use transform="matrix(0.05,0,0,0.05,12.950000000000001,0)" xlink:href="#n"/><use transform="matrix(0.05,0,0,0.05,22.950000000000003,0)" xlink:href="#o"/><use transform="matrix(0.05,0,0,0.05,27.950000000000003,0)" xlink:href="#n"/><use transform="matrix(0.05,0,0,0.05,37.95,0)" xlink:href="#p"/><use transform="matrix(0.05,0,0,0.05,46.95,0)" xlink:href="#q"/><use transform="matrix(0.05,0,0,0.05,56.95,0)" xlink:href="#o"/></g><path d="M127-220V0H93v-220H8v-28h204v28h-85" id="r"/><path d="M114-163C36-179 61-72 57 0H25l-1-190h30c1 12-1 29 2 39 6-27 23-49 58-41v29" id="s"/><path d="M24-231v-30h32v30H24zM24 0v-190h32V0H24" id="t"/><path d="M117-194c89-4 53 116 60 194h-32v-121c0-31-8-49-39-48C34-167 62-67 57 0H25l-1-190h30c1 10-1 24 2 32 11-22 29-35 61-36" id="u"/><path d="M177-190C167-65 218 103 67 71c-23-6-38-20-44-43l32-5c15 47 100 32 89-28v-30C133-14 115 1 83 1 29 1 15-40 15-95c0-56 16-97 71-98 29-1 48 16 59 35 1-10 0-23 2-32h30zM94-22c36 0 50-32 50-73 0-42-14-75-50-75-39 0-46 34-46 75s6 73 46 73" id="v"/><g id="b"><use transform="matrix(0.05,0,0,0.05,0,0)" xlink:href="#r"/><use transform="matrix(0.05,0,0,0.05,10.3,0)" xlink:href="#s"/><use transform="matrix(0.05,0,0,0.05,16.25,0)" xlink:href="#n"/><use transform="matrix(0.05,0,0,0.05,26.25,0)" xlink:href="#t"/><use transform="matrix(0.05,0,0,0.05,30.200000000000003,0)" xlink:href="#u"/><use transform="matrix(0.05,0,0,0.05,40.2,0)" xlink:href="#t"/><use transform="matrix(0.05,0,0,0.05,44.150000000000006,0)" xlink:href="#u"/><use transform="matrix(0.05,0,0,0.05,54.150000000000006,0)" xlink:href="#v"/></g><path d="M33 0v-248h34V0H33" id="w"/><path d="M210-169c-67 3-38 105-44 169h-31v-121c0-29-5-50-35-48C34-165 62-65 56 0H25l-1-190h30c1 10-1 24 2 32 10-44 99-50 107 0 11-21 27-35 58-36 85-2 47 119 55 194h-31v-121c0-29-5-49-35-48" id="x"/><g id="c"><use transform="matrix(0.05,0,0,0.05,0,0)" xlink:href="#w"/><use transform="matrix(0.05,0,0,0.05,5,0)" xlink:href="#x"/><use transform="matrix(0.05,0,0,0.05,19.950000000000003,0)" xlink:href="#n"/><use transform="matrix(0.05,0,0,0.05,29.950000000000003,0)" xlink:href="#v"/><use transform="matrix(0.05,0,0,0.05,39.95,0)" xlink:href="#q"/><use transform="matrix(0.05,0,0,0.05,49.95,0)" xlink:href="#p"/></g><g id="d"><use transform="matrix(0.05,0,0,0.05,0,0)" xlink:href="#r"/><use transform="matrix(0.05,0,0,0.05,8.950000000000001,0)" xlink:href="#q"/><use transform="matrix(0.05,0,0,0.05,18.950000000000003,0)" xlink:href="#p"/><use transform="matrix(0.05,0,0,0.05,27.950000000000003,0)" xlink:href="#o"/><use transform="matrix(0.05,0,0,0.05,32.95,0)" xlink:href="#t"/><use transform="matrix(0.05,0,0,0.05,36.900000000000006,0)" xlink:href="#u"/><use transform="matrix(0.05,0,0,0.05,46.900000000000006,0)" xlink:href="#v"/></g><path d="M30 0v-248h33v221h125V0H30" id="y"/><path d="M143 4C61 4 22-44 18-125c-5-107 100-154 193-111 17 8 29 25 37 43l-32 9c-13-25-37-40-76-40-61 0-88 39-88 99 0 61 29 100 91 101 35 0 62-11 79-27v-45h-74v-28h105v86C228-13 192 4 143 4" id="z"/><path d="M160-131c35 5 61 23 61 61C221 17 115-2 30 0v-248c76 3 177-17 177 60 0 33-19 50-47 57zm-97-11c50-1 110 9 110-42 0-47-63-36-110-37v79zm0 115c55-2 124 14 124-45 0-56-70-42-124-44v89" id="A"/><path d="M30-248c87 1 191-15 191 75 0 78-77 80-158 76V0H30v-248zm33 125c57 0 124 11 124-50 0-59-68-47-124-48v98" id="B"/><path d="M197 0v-115H63V0H30v-248h33v105h134v-105h34V0h-34" id="C"/><path d="M185-189c-5-48-123-54-124 2 14 75 158 14 163 119 3 78-121 87-175 55-17-10-28-26-33-46l33-7c5 56 141 63 141-1 0-78-155-14-162-118-5-82 145-84 179-34 5 7 8 16 11 25" id="D"/><g id="e"><use transform="matrix(0.05,0,0,0.05,0,0)" xlink:href="#y"/><use transform="matrix(0.05,0,0,0.05,10,0)" xlink:href="#z"/><use transform="matrix(0.05,0,0,0.05,24,0)" xlink:href="#A"/><use transform="matrix(0.05,0,0,0.05,36,0)" xlink:href="#B"/><use transform="matrix(0.05,0,0,0.05,48,0)" xlink:href="#C"/><use transform="matrix(0.05,0,0,0.05,60.95,0)" xlink:href="#D"/></g><path d="M212-179c-10-28-35-45-73-45-59 0-87 40-87 99 0 60 29 101 89 101 43 0 62-24 78-52l27 14C228-24 195 4 139 4 59 4 22-46 18-125c-6-104 99-153 187-111 19 9 31 26 39 46" id="E"/><path d="M205 0l-28-72H64L36 0H1l101-248h38L239 0h-34zm-38-99l-47-123c-12 45-31 82-46 123h93" id="F"/><g id="f"><use transform="matrix(0.05,0,0,0.05,0,0)" xlink:href="#B"/><use transform="matrix(0.05,0,0,0.05,12,0)" xlink:href="#E"/><use transform="matrix(0.05,0,0,0.05,24.950000000000003,0)" xlink:href="#F"/></g><g id="g"><use transform="matrix(0.05,0,0,0.05,0,0)" xlink:href="#m"/><use transform="matrix(0.05,0,0,0.05,12.950000000000001,0)" xlink:href="#B"/><use transform="matrix(0.05,0,0,0.05,24.950000000000003,0)" xlink:href="#y"/></g><g id="h"><use transform="matrix(0.05,0,0,0.05,0,0)" xlink:href="#r"/><use transform="matrix(0.05,0,0,0.05,10.3,0)" xlink:href="#s"/><use transform="matrix(0.05,0,0,0.05,16.25,0)" xlink:href="#n"/><use transform="matrix(0.05,0,0,0.05,26.25,0)" xlink:href="#u"/><use transform="matrix(0.05,0,0,0.05,36.25,0)" xlink:href="#t"/><use transform="matrix(0.05,0,0,0.05,40.2,0)" xlink:href="#u"/><use transform="matrix(0.05,0,0,0.05,50.2,0)" xlink:href="#v"/></g><g id="i"><use transform="matrix(0.05,0,0,0.05,0,0)" xlink:href="#r"/><use transform="matrix(0.05,0,0,0.05,8.950000000000001,0)" xlink:href="#q"/><use transform="matrix(0.05,0,0,0.05,18.950000000000003,0)" xlink:href="#p"/><use transform="matrix(0.05,0,0,0.05,27.950000000000003,0)" xlink:href="#o"/><use transform="matrix(0.05,0,0,0.05,32.95,0)" xlink:href="#t"/><use transform="matrix(0.05,0,0,0.05,36.900000000000006,0)" xlink:href="#u"/><use transform="matrix(0.05,0,0,0.05,46.900000000000006,0)" xlink:href="#v"/></g><path d="M68-38c1 34 0 65-14 84H32c9-13 17-26 17-46H33v-38h35" id="G"/><g id="j"><use transform="matrix(0.05,0,0,0.05,0,0)" xlink:href="#m"/><use transform="matrix(0.05,0,0,0.05,12.950000000000001,0)" xlink:href="#G"/></g><use transform="matrix(0.05,0,0,0.05,0,0)" xlink:href="#B" id="k"/><path d="M233-177c-1 41-23 64-60 70L243 0h-38l-65-103H63V0H30v-248c88 3 205-21 203 71zM63-129c60-2 137 13 137-47 0-61-80-42-137-45v92" id="H"/><path d="M84 4C-5 8 30-112 23-190h32v120c0 31 7 50 39 49 72-2 45-101 50-169h31l1 190h-30c-1-10 1-25-2-33-11 22-28 36-60 37" id="I"/><path d="M24 0v-261h32V0H24" id="J"/><g id="l"><use transform="matrix(0.05,0,0,0.05,0,0)" xlink:href="#H"/><use transform="matrix(0.05,0,0,0.05,12.950000000000001,0)" xlink:href="#q"/><use transform="matrix(0.05,0,0,0.05,22.950000000000003,0)" xlink:href="#p"/><use transform="matrix(0.05,0,0,0.05,31.950000000000003,0)" xlink:href="#I"/><use transform="matrix(0.05,0,0,0.05,41.95,0)" xlink:href="#o"/><use transform="matrix(0.05,0,0,0.05,46.95,0)" xlink:href="#J"/><use transform="matrix(0.05,0,0,0.05,50.900000000000006,0)" xlink:href="#p"/></g></defs></g></svg>